<svg aria-hidden="true" style="position: absolute; width: 0; height: 0; overflow: hidden;" version="1.1" xmlns="http://www.w3.org/2000/svg" xmlns:xlink="http://www.w3.org/1999/xlink">
<defs>
<symbol id="icon-alcove" viewBox="0 0 29 32">
<path d="M4.65 1.165h6.096c0.052 0 0.1-0.020 0.136-0.055l0.586-0.571c0.17-0.166 0.396-0.257 0.637-0.257h9.243c0.43 0 0.83 0.209 1.069 0.558l1.108 1.621c0.157 0.23 0.172 0.524 0.038 0.768s-0.393 0.395-0.677 0.395h-4.764v0.47h2.44c0.647 0 1.229 0.375 1.482 0.955l1.429 3.267 1.251 0.488c0.668 0.261 1.1 0.883 1.1 1.585v3.025c0 0.451-0.376 0.818-0.839 0.818h-1.456c-0.169 1.001-1.063 1.768-2.137 1.768s-1.968-0.767-2.137-1.768h-7.96c-0.169 1.001-1.063 1.768-2.137 1.768s-1.968-0.767-2.137-1.768h-2.909c-0.411 0-0.746-0.326-0.746-0.727v-11.090c0-0.689 0.575-1.25 1.281-1.25zM21.393 15.309c0.804 0 1.458-0.638 1.458-1.423s-0.654-1.423-1.458-1.423c-0.804 0-1.458 0.638-1.458 1.423s0.654 1.423 1.458 1.423zM18.122 13.541h1.133c0.003-0.017 0.006-0.034 0.010-0.051 0.002-0.012 0.004-0.023 0.007-0.035 0.006-0.027 0.012-0.054 0.019-0.081 0.001-0.006 0.003-0.011 0.004-0.017 0.009-0.032 0.018-0.064 0.028-0.096 0.003-0.009 0.006-0.018 0.009-0.028 0.007-0.022 0.015-0.044 0.023-0.066 0.005-0.012 0.009-0.023 0.014-0.035 0.007-0.019 0.015-0.038 0.023-0.057 0.005-0.012 0.011-0.025 0.016-0.037 0.008-0.018 0.016-0.035 0.024-0.053 0.006-0.012 0.012-0.025 0.019-0.037 0.008-0.017 0.018-0.034 0.027-0.051 0.006-0.012 0.013-0.024 0.020-0.037 0.009-0.017 0.019-0.033 0.029-0.049 0.007-0.012 0.014-0.023 0.021-0.035 0.011-0.017 0.021-0.033 0.033-0.049 0.007-0.011 0.014-0.022 0.022-0.032 0.012-0.017 0.025-0.035 0.038-0.052 0.006-0.009 0.013-0.018 0.020-0.027 0.018-0.023 0.035-0.044 0.054-0.066 0.003-0.003 0.005-0.007 0.008-0.010 0.021-0.025 0.043-0.049 0.065-0.073 0.007-0.007 0.014-0.014 0.021-0.022 0.016-0.016 0.031-0.033 0.047-0.049 0.009-0.009 0.018-0.017 0.027-0.026 0.014-0.014 0.029-0.028 0.044-0.041 0.010-0.009 0.020-0.018 0.030-0.027 0.015-0.013 0.029-0.025 0.044-0.038l0.032-0.026c0.015-0.012 0.030-0.024 0.046-0.035 0.011-0.008 0.022-0.017 0.034-0.025 0.016-0.011 0.031-0.022 0.048-0.033 0.011-0.007 0.023-0.015 0.034-0.023 0.017-0.011 0.034-0.022 0.051-0.032 0.011-0.007 0.022-0.014 0.033-0.020 0.019-0.011 0.038-0.022 0.057-0.032 0.010-0.005 0.020-0.011 0.029-0.016 0.027-0.014 0.055-0.028 0.083-0.041 0.002-0.001 0.004-0.002 0.006-0.003 0.030-0.014 0.061-0.028 0.091-0.040 0.010-0.004 0.020-0.008 0.030-0.012 0.021-0.008 0.042-0.017 0.064-0.025 0.012-0.004 0.025-0.008 0.037-0.013 0.020-0.007 0.039-0.013 0.059-0.019 0.013-0.004 0.027-0.008 0.040-0.012 0.019-0.006 0.038-0.011 0.058-0.016 0.014-0.004 0.028-0.007 0.042-0.011 0.019-0.005 0.038-0.009 0.058-0.013 0.014-0.003 0.028-0.006 0.043-0.009 0.020-0.004 0.040-0.007 0.060-0.010 0.014-0.003 0.028-0.005 0.042-0.007 0.021-0.003 0.042-0.006 0.063-0.008 0.013-0.001 0.027-0.003 0.040-0.004 0.023-0.002 0.047-0.004 0.070-0.005 0.012-0.001 0.023-0.002 0.035-0.002 0.035-0.002 0.070-0.003 0.106-0.003s0.071 0.001 0.106 0.003c0.012 0 0.023 0.001 0.035 0.002 0.024 0.001 0.047 0.003 0.070 0.005 0.014 0.001 0.027 0.003 0.040 0.004 0.021 0.002 0.042 0.005 0.063 0.008 0.014 0.002 0.028 0.004 0.043 0.007 0.020 0.003 0.040 0.007 0.060 0.010 0.014 0.003 0.029 0.006 0.043 0.009 0.020 0.004 0.039 0.008 0.058 0.013 0.014 0.003 0.028 0.007 0.042 0.011 0.019 0.005 0.038 0.011 0.058 0.016 0.014 0.004 0.027 0.008 0.040 0.012 0.020 0.006 0.039 0.013 0.059 0.019 0.012 0.004 0.025 0.008 0.037 0.013 0.021 0.008 0.043 0.016 0.064 0.025 0.010 0.004 0.020 0.008 0.030 0.012 0.031 0.013 0.061 0.026 0.091 0.040 0.002 0.001 0.004 0.002 0.006 0.003 0.028 0.013 0.055 0.027 0.083 0.041 0.010 0.005 0.019 0.011 0.029 0.016 0.019 0.011 0.038 0.021 0.057 0.032 0.011 0.007 0.022 0.014 0.033 0.020 0.017 0.011 0.034 0.021 0.051 0.032 0.011 0.007 0.023 0.015 0.034 0.023 0.016 0.011 0.032 0.022 0.048 0.033 0.011 0.008 0.023 0.016 0.034 0.025 0.015 0.012 0.031 0.023 0.046 0.035l0.032 0.026c0.015 0.012 0.030 0.025 0.044 0.038 0.010 0.009 0.020 0.018 0.030 0.027 0.015 0.014 0.030 0.027 0.044 0.041 0.009 0.009 0.018 0.017 0.027 0.026 0.016 0.016 0.032 0.032 0.047 0.049 0.007 0.007 0.014 0.014 0.021 0.022 0.022 0.024 0.044 0.048 0.065 0.073 0.003 0.003 0.005 0.007 0.008 0.010 0.018 0.022 0.036 0.044 0.053 0.066 0.007 0.009 0.013 0.018 0.020 0.027 0.013 0.017 0.026 0.034 0.038 0.052 0.007 0.011 0.014 0.021 0.022 0.032 0.011 0.017 0.022 0.033 0.033 0.049 0.007 0.012 0.014 0.023 0.021 0.035 0.010 0.016 0.020 0.033 0.029 0.049 0.007 0.012 0.014 0.024 0.020 0.037 0.009 0.017 0.018 0.034 0.027 0.051 0.006 0.012 0.012 0.025 0.019 0.037 0.008 0.018 0.016 0.035 0.024 0.053 0.006 0.012 0.011 0.024 0.016 0.037 0.008 0.019 0.016 0.038 0.023 0.057 0.005 0.012 0.009 0.023 0.014 0.035 0.008 0.022 0.016 0.044 0.023 0.066 0.003 0.009 0.006 0.018 0.009 0.028 0.010 0.031 0.019 0.063 0.028 0.096 0.002 0.006 0.003 0.011 0.004 0.017 0.007 0.027 0.013 0.054 0.019 0.081 0.003 0.012 0.005 0.023 0.007 0.035 0.003 0.017 0.007 0.034 0.010 0.051h1.456c0.072 0 0.131-0.057 0.131-0.128v-1.447h-0.552v-0.691h0.552v-0.887c0-0.418-0.257-0.789-0.655-0.944l-1.325-0.517h-5.015v4.614zM18.122 8.237h4.547l-1.276-2.918c-0.142-0.325-0.469-0.536-0.831-0.536h-2.44v3.453zM9.159 15.309c0.804 0 1.458-0.638 1.458-1.423s-0.654-1.423-1.458-1.423c-0.025 0-0.050 0.001-0.075 0.002-0.67 0.033-1.222 0.51-1.354 1.134-0.005 0.023-0.009 0.047-0.013 0.070-0.007 0.047-0.012 0.095-0.015 0.143-0.001 0.024-0.002 0.049-0.002 0.073 0 0.785 0.654 1.423 1.458 1.423zM4.076 11.276h0.552v0.691h-0.552v1.538c0 0.020 0.017 0.037 0.038 0.037h2.908c0.003-0.017 0.006-0.034 0.010-0.051 0.002-0.012 0.004-0.024 0.007-0.036 0.006-0.027 0.012-0.053 0.019-0.079 0.002-0.006 0.003-0.012 0.005-0.019 0.008-0.032 0.018-0.063 0.028-0.095 0.003-0.010 0.006-0.019 0.010-0.029 0.007-0.022 0.015-0.044 0.023-0.065 0.005-0.012 0.009-0.024 0.014-0.036 0.007-0.019 0.015-0.038 0.023-0.056 0.005-0.013 0.011-0.025 0.017-0.038 0.008-0.017 0.016-0.035 0.024-0.052 0.006-0.013 0.012-0.025 0.019-0.038 0.008-0.017 0.017-0.033 0.026-0.050 0.007-0.012 0.014-0.024 0.020-0.037 0.010-0.017 0.019-0.033 0.029-0.049 0.007-0.012 0.014-0.023 0.021-0.035 0.011-0.017 0.021-0.033 0.032-0.049 0.007-0.011 0.014-0.022 0.022-0.033 0.012-0.017 0.025-0.034 0.037-0.051 0.007-0.009 0.014-0.019 0.021-0.028 0.017-0.022 0.034-0.043 0.052-0.065 0.003-0.004 0.006-0.008 0.009-0.011 0.021-0.025 0.043-0.049 0.065-0.073 0.007-0.007 0.014-0.015 0.021-0.022 0.016-0.016 0.031-0.032 0.047-0.048 0.009-0.009 0.018-0.017 0.028-0.026 0.014-0.014 0.029-0.027 0.044-0.041 0.010-0.009 0.020-0.018 0.031-0.027 0.014-0.012 0.029-0.025 0.044-0.037 0.011-0.009 0.021-0.018 0.033-0.026 0.015-0.012 0.030-0.023 0.045-0.035 0.011-0.008 0.022-0.017 0.034-0.025 0.016-0.011 0.031-0.022 0.047-0.033 0.012-0.008 0.023-0.015 0.034-0.023 0.017-0.011 0.034-0.022 0.051-0.032 0.011-0.007 0.022-0.014 0.034-0.020 0.019-0.011 0.038-0.022 0.057-0.032 0.010-0.005 0.020-0.011 0.030-0.016 0.027-0.014 0.054-0.028 0.082-0.041 0.002-0.001 0.005-0.002 0.007-0.004 0.030-0.014 0.061-0.028 0.091-0.040 0.010-0.004 0.020-0.008 0.030-0.012 0.021-0.008 0.042-0.017 0.064-0.025 0.012-0.004 0.025-0.008 0.037-0.013 0.019-0.007 0.039-0.013 0.059-0.019 0.013-0.004 0.027-0.008 0.040-0.012 0.019-0.006 0.039-0.011 0.058-0.016 0.014-0.004 0.028-0.007 0.042-0.011 0.019-0.005 0.039-0.009 0.058-0.013 0.014-0.003 0.028-0.006 0.043-0.009 0.020-0.004 0.040-0.007 0.060-0.010 0.014-0.003 0.028-0.005 0.043-0.007 0.021-0.003 0.042-0.006 0.063-0.008 0.013-0.001 0.027-0.003 0.041-0.004 0.023-0.002 0.047-0.004 0.070-0.005 0.012-0.001 0.023-0.002 0.035-0.002 0.035-0.002 0.070-0.003 0.106-0.003s0.071 0.001 0.106 0.003c0.012 0 0.023 0.001 0.035 0.002 0.023 0.001 0.047 0.003 0.070 0.005 0.014 0.001 0.027 0.003 0.041 0.004 0.021 0.002 0.042 0.005 0.063 0.008 0.014 0.002 0.028 0.004 0.042 0.007 0.020 0.003 0.040 0.007 0.060 0.010 0.014 0.003 0.029 0.006 0.043 0.009 0.020 0.004 0.039 0.008 0.058 0.013 0.014 0.003 0.028 0.007 0.042 0.011 0.019 0.005 0.039 0.011 0.058 0.016 0.013 0.004 0.027 0.008 0.040 0.012 0.020 0.006 0.039 0.013 0.059 0.019 0.012 0.004 0.025 0.008 0.037 0.013 0.021 0.008 0.043 0.016 0.064 0.025 0.010 0.004 0.020 0.008 0.030 0.012 0.031 0.013 0.061 0.026 0.091 0.040 0.003 0.001 0.005 0.002 0.007 0.004 0.028 0.013 0.055 0.027 0.082 0.041 0.010 0.005 0.020 0.011 0.030 0.016 0.019 0.011 0.038 0.021 0.057 0.032 0.011 0.007 0.022 0.014 0.034 0.020 0.017 0.010 0.034 0.021 0.051 0.032 0.011 0.007 0.023 0.015 0.034 0.023 0.016 0.011 0.032 0.022 0.047 0.033 0.011 0.008 0.023 0.016 0.034 0.025 0.015 0.012 0.031 0.023 0.045 0.035 0.011 0.009 0.022 0.017 0.033 0.026 0.015 0.012 0.030 0.025 0.044 0.037 0.010 0.009 0.021 0.018 0.031 0.027 0.015 0.014 0.029 0.027 0.044 0.041 0.009 0.009 0.018 0.017 0.027 0.026 0.016 0.016 0.032 0.032 0.047 0.048 0.007 0.007 0.014 0.014 0.021 0.022 0.022 0.024 0.044 0.048 0.065 0.073 0.003 0.004 0.006 0.007 0.008 0.011 0.018 0.022 0.036 0.043 0.053 0.066 0.007 0.009 0.014 0.018 0.020 0.027 0.013 0.017 0.025 0.034 0.038 0.052 0.007 0.011 0.014 0.022 0.022 0.032 0.011 0.016 0.022 0.033 0.032 0.049 0.007 0.012 0.014 0.023 0.021 0.035 0.010 0.016 0.020 0.033 0.029 0.049 0.007 0.012 0.014 0.024 0.020 0.037 0.009 0.017 0.018 0.034 0.027 0.051 0.006 0.012 0.012 0.025 0.018 0.037 0.008 0.018 0.016 0.035 0.024 0.053 0.006 0.012 0.011 0.024 0.016 0.037 0.008 0.019 0.016 0.038 0.023 0.057 0.005 0.012 0.009 0.023 0.014 0.035 0.008 0.022 0.016 0.044 0.023 0.067 0.003 0.009 0.007 0.018 0.009 0.027 0.010 0.031 0.019 0.064 0.028 0.096 0.001 0.005 0.002 0.010 0.003 0.015 0.007 0.027 0.014 0.055 0.020 0.082 0.003 0.011 0.005 0.022 0.007 0.034 0.003 0.017 0.007 0.035 0.010 0.052h6.117v-10.263c0-0.191 0.159-0.345 0.354-0.345h5.118c0.009 0 0.036 0 0.052-0.031s0.002-0.052-0.003-0.059l-1.108-1.621c-0.107-0.157-0.287-0.251-0.48-0.251h-9.243c-0.052 0-0.1 0.020-0.137 0.055l-0.586 0.571c-0.17 0.166-0.396 0.257-0.637 0.257h-6.096c-0.316 0-0.573 0.251-0.573 0.559v8.861z"></path>
<path d="M13.25 3.816h2.239c0.452 0 0.82 0.359 0.82 0.8v7.391c0 0.191-0.159 0.345-0.354 0.345h-3.172c-0.195 0-0.354-0.155-0.354-0.345v-7.391c-0-0.441 0.368-0.8 0.82-0.8zM13.137 11.662h2.464v-4.061h-2.464v4.061zM13.137 6.911h2.464v-2.294c0-0.061-0.050-0.11-0.112-0.11h-2.239c-0.062 0-0.112 0.049-0.112 0.11v2.294h0zM6.088 3.816h4.33c0.5 0 0.908 0.397 0.908 0.885v2.014c0 0.488-0.407 0.885-0.908 0.885h-4.33c-0.5 0-0.908-0.397-0.908-0.885v-2.014c0-0.488 0.407-0.885 0.908-0.885zM5.888 6.716c0 0.107 0.090 0.195 0.2 0.195h4.33c0.11 0 0.2-0.087 0.2-0.195v-2.014c0-0.107-0.089-0.195-0.2-0.195h-4.33c-0.11 0-0.2 0.087-0.2 0.195v2.014h0z"></path>
<path d="M1.335 29.474h-1.046l2.351-6.533h1.139l2.351 6.533h-1.046l-1.847-5.346h-0.051l-1.85 5.346zM1.511 26.915h3.394v0.829h-3.394v-0.829zM7.95 22.941v6.533h-0.954v-6.533h0.954zM11.297 29.573c-0.474 0-0.883-0.107-1.225-0.322-0.34-0.217-0.602-0.516-0.785-0.896s-0.274-0.817-0.274-1.308c0-0.498 0.094-0.937 0.281-1.317 0.187-0.383 0.451-0.682 0.791-0.896s0.741-0.322 1.203-0.322c0.372 0 0.704 0.069 0.995 0.207 0.291 0.136 0.526 0.327 0.705 0.574 0.181 0.247 0.288 0.535 0.322 0.864h-0.928c-0.051-0.23-0.168-0.427-0.351-0.593-0.181-0.166-0.423-0.249-0.727-0.249-0.266 0-0.499 0.070-0.699 0.211-0.198 0.138-0.352 0.336-0.462 0.593-0.111 0.255-0.166 0.557-0.166 0.906 0 0.357 0.054 0.666 0.163 0.925s0.262 0.46 0.459 0.603c0.2 0.142 0.435 0.214 0.705 0.214 0.181 0 0.345-0.033 0.491-0.099 0.149-0.068 0.273-0.165 0.373-0.29 0.102-0.125 0.173-0.276 0.214-0.453h0.928c-0.034 0.317-0.137 0.6-0.309 0.849s-0.403 0.444-0.692 0.587c-0.287 0.142-0.624 0.214-1.011 0.214zM16.394 29.573c-0.459 0-0.86-0.105-1.203-0.316s-0.608-0.505-0.797-0.884c-0.189-0.379-0.284-0.821-0.284-1.327 0-0.508 0.095-0.953 0.284-1.333s0.455-0.676 0.797-0.887c0.342-0.211 0.743-0.316 1.203-0.316s0.86 0.105 1.203 0.316c0.342 0.211 0.608 0.506 0.797 0.887s0.284 0.825 0.284 1.333c0 0.506-0.095 0.948-0.284 1.327s-0.455 0.673-0.797 0.884c-0.342 0.211-0.743 0.316-1.203 0.316zM16.397 28.772c0.298 0 0.544-0.079 0.74-0.236s0.34-0.367 0.434-0.628c0.096-0.262 0.144-0.55 0.144-0.864 0-0.313-0.048-0.6-0.144-0.861-0.094-0.264-0.238-0.475-0.434-0.635s-0.442-0.239-0.74-0.239c-0.3 0-0.549 0.080-0.746 0.239-0.196 0.16-0.341 0.371-0.437 0.635-0.094 0.262-0.14 0.549-0.14 0.861 0 0.315 0.047 0.603 0.14 0.864 0.096 0.262 0.241 0.471 0.437 0.628 0.198 0.157 0.447 0.236 0.746 0.236zM23.767 24.574l-1.777 4.9h-1.021l-1.78-4.9h1.024l1.241 3.77h0.051l1.238-3.77h1.024zM26.608 29.573c-0.483 0-0.898-0.103-1.247-0.309-0.347-0.208-0.615-0.501-0.804-0.877-0.187-0.378-0.281-0.822-0.281-1.33 0-0.502 0.094-0.944 0.281-1.327 0.189-0.383 0.453-0.682 0.791-0.896 0.34-0.215 0.738-0.322 1.193-0.322 0.276 0 0.544 0.046 0.804 0.137s0.492 0.235 0.699 0.431c0.206 0.196 0.369 0.45 0.488 0.762 0.119 0.31 0.179 0.688 0.179 1.132v0.338h-3.895v-0.715h2.96c0-0.251-0.051-0.473-0.153-0.667-0.102-0.196-0.246-0.35-0.431-0.463-0.183-0.113-0.398-0.169-0.644-0.169-0.268 0-0.502 0.066-0.702 0.198-0.198 0.13-0.351 0.3-0.459 0.51-0.106 0.208-0.16 0.435-0.16 0.679v0.558c0 0.327 0.057 0.606 0.172 0.836 0.117 0.23 0.28 0.405 0.488 0.526 0.208 0.119 0.452 0.179 0.73 0.179 0.181 0 0.346-0.026 0.494-0.077 0.149-0.053 0.277-0.132 0.386-0.236s0.191-0.233 0.249-0.386l0.903 0.163c-0.072 0.266-0.202 0.499-0.389 0.699-0.185 0.198-0.418 0.352-0.699 0.463-0.279 0.108-0.596 0.163-0.954 0.163z"></path>
</symbol>
<symbol id="icon-avtomat" viewBox="0 0 41 32">
<path fill="none" stroke="#101828" style="stroke: var(--color1, #101828)" stroke-linejoin="round" stroke-linecap="round" stroke-miterlimit="4" stroke-width="0.9443" d="M24.219 7.956h1.049c0.278 0 0.545-0.111 0.742-0.307s0.307-0.464 0.307-0.742c0-0.278-0.111-0.545-0.307-0.742s-0.464-0.307-0.742-0.307h-1.049v3.497M24.219 12.153v2.798h0.699c0.371 0 0.727-0.147 0.989-0.41s0.41-0.618 0.41-0.989c0-0.371-0.147-0.727-0.41-0.989s-0.618-0.41-0.989-0.41h-0.699zM14.426 3.76c0 0.371 0.147 0.727 0.41 0.989s0.618 0.41 0.989 0.41c0.371 0 0.727-0.147 0.989-0.41s0.41-0.618 0.41-0.989c0-0.371-0.147-0.727-0.41-0.989s-0.618-0.41-0.989-0.41c-0.371 0-0.727 0.147-0.989 0.41s-0.41 0.618-0.41 0.989z"></path>
<path fill="none" stroke="#101828" style="stroke: var(--color1, #101828)" stroke-linejoin="round" stroke-linecap="round" stroke-miterlimit="4" stroke-width="0.9443" d="M15.825 5.158v2.098c0 0.186 0.074 0.363 0.205 0.495s0.309 0.205 0.495 0.205h2.098M18.623 7.956v4.896c0 0.185 0.074 0.363 0.205 0.495s0.309 0.205 0.495 0.205h2.098M18.623 7.956h2.798"></path>
<path d="M1.322 29.639h-0.978l2.197-6.104h1.064l2.197 6.104h-0.978l-1.726-4.995h-0.048l-1.729 4.995zM1.485 27.249h3.171v0.775h-3.171v-0.775zM9.512 27.741v-2.68h0.894v4.578h-0.876v-0.793h-0.048c-0.105 0.244-0.274 0.448-0.507 0.611-0.23 0.161-0.518 0.241-0.861 0.241-0.294 0-0.554-0.065-0.781-0.194-0.225-0.131-0.401-0.325-0.531-0.581-0.127-0.256-0.191-0.573-0.191-0.951v-2.912h0.891v2.805c0 0.312 0.086 0.56 0.259 0.745s0.397 0.277 0.674 0.277c0.167 0 0.333-0.042 0.498-0.125 0.167-0.083 0.305-0.21 0.414-0.378 0.111-0.169 0.166-0.384 0.164-0.644zM13.74 25.061v0.715h-2.501v-0.715h2.501zM11.91 23.964h0.891v4.331c0 0.173 0.026 0.303 0.077 0.39 0.052 0.085 0.118 0.144 0.2 0.176 0.083 0.030 0.174 0.045 0.271 0.045 0.072 0 0.134-0.005 0.188-0.015s0.095-0.018 0.125-0.024l0.161 0.736c-0.052 0.020-0.125 0.040-0.221 0.060-0.095 0.022-0.215 0.034-0.358 0.036-0.235 0.004-0.453-0.038-0.656-0.125s-0.367-0.223-0.492-0.405c-0.125-0.183-0.188-0.412-0.188-0.689v-4.516zM16.605 29.732c-0.429 0-0.804-0.098-1.124-0.295s-0.568-0.472-0.745-0.826c-0.177-0.354-0.265-0.767-0.265-1.24 0-0.475 0.088-0.89 0.265-1.246s0.425-0.632 0.745-0.829c0.32-0.197 0.694-0.295 1.124-0.295s0.804 0.098 1.124 0.295c0.32 0.197 0.568 0.473 0.745 0.829s0.265 0.771 0.265 1.246c0 0.473-0.088 0.886-0.265 1.24s-0.425 0.629-0.745 0.826c-0.32 0.197-0.695 0.295-1.124 0.295zM16.608 28.984c0.278 0 0.509-0.074 0.692-0.221s0.318-0.343 0.405-0.587c0.089-0.244 0.134-0.514 0.134-0.808 0-0.292-0.045-0.56-0.134-0.805-0.087-0.246-0.223-0.444-0.405-0.593s-0.413-0.224-0.692-0.224c-0.28 0-0.513 0.075-0.697 0.224-0.183 0.149-0.319 0.347-0.408 0.593-0.087 0.244-0.131 0.513-0.131 0.805 0 0.294 0.044 0.563 0.131 0.808 0.089 0.244 0.226 0.44 0.408 0.587 0.185 0.147 0.417 0.221 0.697 0.221zM19.734 29.639v-4.578h0.855v0.745h0.057c0.095-0.252 0.251-0.449 0.468-0.59 0.217-0.143 0.476-0.215 0.778-0.215 0.306 0 0.562 0.072 0.769 0.215 0.209 0.143 0.363 0.34 0.462 0.59h0.048c0.109-0.244 0.283-0.439 0.522-0.584 0.238-0.147 0.523-0.221 0.852-0.221 0.415 0 0.754 0.13 1.016 0.39 0.264 0.26 0.396 0.653 0.396 1.177v3.070h-0.891v-2.987c0-0.31-0.084-0.535-0.253-0.674s-0.371-0.209-0.605-0.209c-0.29 0-0.516 0.089-0.677 0.268-0.161 0.177-0.241 0.404-0.241 0.683v2.918h-0.888v-3.043c0-0.248-0.077-0.448-0.232-0.599s-0.357-0.227-0.605-0.227c-0.169 0-0.325 0.045-0.468 0.134-0.141 0.087-0.255 0.21-0.343 0.367-0.085 0.157-0.128 0.339-0.128 0.545v2.823h-0.891zM28.485 29.741c-0.29 0-0.552-0.054-0.787-0.161-0.235-0.109-0.42-0.267-0.557-0.474-0.135-0.207-0.203-0.46-0.203-0.76 0-0.258 0.050-0.471 0.149-0.638s0.233-0.299 0.402-0.396c0.169-0.097 0.358-0.171 0.566-0.221s0.421-0.087 0.638-0.113c0.274-0.032 0.497-0.058 0.668-0.077 0.171-0.022 0.295-0.057 0.373-0.104s0.116-0.125 0.116-0.232v-0.021c0-0.26-0.074-0.462-0.221-0.605-0.145-0.143-0.362-0.215-0.65-0.215-0.3 0-0.537 0.067-0.709 0.2-0.171 0.131-0.289 0.277-0.355 0.438l-0.838-0.191c0.099-0.278 0.244-0.503 0.435-0.674 0.193-0.173 0.414-0.298 0.665-0.376 0.25-0.080 0.514-0.119 0.79-0.119 0.183 0 0.377 0.022 0.581 0.066 0.207 0.042 0.399 0.119 0.578 0.233 0.181 0.113 0.329 0.275 0.444 0.486 0.115 0.209 0.173 0.48 0.173 0.814v3.040h-0.87v-0.626h-0.036c-0.058 0.115-0.144 0.229-0.259 0.34s-0.263 0.204-0.444 0.277c-0.181 0.073-0.397 0.11-0.65 0.11zM28.678 29.025c0.246 0 0.457-0.049 0.632-0.146 0.177-0.097 0.311-0.225 0.402-0.381 0.093-0.159 0.14-0.329 0.14-0.51v-0.59c-0.032 0.032-0.093 0.062-0.185 0.089-0.089 0.026-0.192 0.049-0.307 0.069-0.115 0.018-0.228 0.035-0.337 0.051-0.109 0.014-0.201 0.026-0.274 0.036-0.173 0.022-0.331 0.059-0.474 0.11-0.141 0.052-0.254 0.126-0.34 0.224-0.083 0.095-0.125 0.223-0.125 0.382 0 0.221 0.081 0.387 0.244 0.501 0.163 0.111 0.371 0.167 0.623 0.167zM34.068 25.061v0.715h-2.501v-0.715h2.501zM32.238 23.964h0.891v4.331c0 0.173 0.026 0.303 0.077 0.39 0.052 0.085 0.118 0.144 0.2 0.176 0.083 0.030 0.174 0.045 0.271 0.045 0.072 0 0.134-0.005 0.188-0.015s0.095-0.018 0.125-0.024l0.161 0.736c-0.052 0.020-0.125 0.040-0.221 0.060-0.095 0.022-0.215 0.034-0.358 0.036-0.234 0.004-0.453-0.038-0.656-0.125s-0.367-0.223-0.492-0.405c-0.125-0.183-0.188-0.412-0.188-0.689v-4.516zM35.054 29.639v-4.578h0.891v4.578h-0.891zM35.504 24.355c-0.155 0-0.288-0.052-0.399-0.155-0.109-0.105-0.164-0.23-0.164-0.376 0-0.147 0.055-0.272 0.164-0.376 0.111-0.105 0.244-0.158 0.399-0.158s0.287 0.053 0.396 0.158c0.111 0.103 0.167 0.229 0.167 0.376 0 0.145-0.056 0.27-0.167 0.376-0.109 0.103-0.241 0.155-0.396 0.155zM39.073 29.732c-0.443 0-0.825-0.1-1.145-0.301-0.318-0.203-0.562-0.482-0.733-0.838s-0.256-0.763-0.256-1.222c0-0.465 0.087-0.875 0.262-1.231 0.175-0.358 0.421-0.637 0.739-0.837s0.692-0.301 1.124-0.301c0.348 0 0.658 0.065 0.93 0.194 0.272 0.127 0.492 0.306 0.659 0.537 0.169 0.23 0.269 0.5 0.301 0.808h-0.867c-0.048-0.215-0.157-0.399-0.328-0.554-0.169-0.155-0.395-0.233-0.68-0.233-0.248 0-0.466 0.066-0.653 0.197-0.185 0.129-0.329 0.314-0.432 0.554-0.103 0.238-0.155 0.521-0.155 0.847 0 0.334 0.051 0.622 0.152 0.864s0.244 0.43 0.429 0.563c0.187 0.133 0.406 0.2 0.659 0.2 0.169 0 0.322-0.031 0.459-0.092 0.139-0.064 0.255-0.154 0.349-0.271 0.095-0.117 0.162-0.258 0.2-0.423h0.867c-0.032 0.296-0.128 0.56-0.289 0.793s-0.377 0.415-0.647 0.548c-0.268 0.133-0.583 0.2-0.945 0.2z"></path>
</symbol>
<symbol id="icon-fully" viewBox="0 0 33 32">
<path d="M9.26 0.862h4.512c0.038 0 0.074-0.015 0.101-0.041l0.434-0.423c0.126-0.123 0.293-0.191 0.472-0.191h6.842c0.319 0 0.614 0.154 0.791 0.413l0.82 1.2c0.116 0.17 0.127 0.388 0.028 0.569s-0.291 0.293-0.501 0.293h-3.527v0.348h1.806c0.479 0 0.91 0.277 1.097 0.707l1.058 2.418 0.926 0.362c0.495 0.193 0.814 0.654 0.814 1.173v2.239c0 0.334-0.279 0.606-0.621 0.606h-1.078c-0.125 0.741-0.787 1.309-1.582 1.309s-1.456-0.568-1.582-1.309h-5.892c-0.125 0.741-0.787 1.309-1.582 1.309s-1.457-0.568-1.582-1.309h-2.153c-0.304 0-0.552-0.242-0.552-0.538v-8.209c0-0.51 0.425-0.925 0.948-0.925zM21.654 11.333c0.595 0 1.080-0.472 1.080-1.053s-0.484-1.053-1.080-1.053c-0.595 0-1.080 0.472-1.080 1.053s0.484 1.053 1.080 1.053zM19.233 10.024h0.839c0.002-0.013 0.005-0.025 0.007-0.038 0.002-0.009 0.003-0.017 0.005-0.026 0.004-0.020 0.009-0.040 0.014-0.060 0.001-0.004 0.002-0.008 0.003-0.012 0.006-0.024 0.013-0.047 0.021-0.071 0.002-0.007 0.005-0.014 0.007-0.020 0.005-0.016 0.011-0.033 0.017-0.049 0.003-0.009 0.007-0.017 0.010-0.026 0.005-0.014 0.011-0.028 0.017-0.042 0.004-0.009 0.008-0.018 0.012-0.027 0.006-0.013 0.012-0.026 0.018-0.039 0.005-0.009 0.009-0.018 0.014-0.027 0.006-0.012 0.013-0.025 0.020-0.037 0.005-0.009 0.010-0.018 0.015-0.027 0.007-0.012 0.014-0.025 0.022-0.037 0.005-0.009 0.010-0.017 0.016-0.026 0.008-0.012 0.016-0.024 0.024-0.037 0.005-0.008 0.011-0.016 0.016-0.024 0.009-0.013 0.018-0.026 0.028-0.038 0.005-0.007 0.010-0.014 0.015-0.020 0.013-0.017 0.026-0.033 0.040-0.049 0.002-0.002 0.004-0.005 0.006-0.007 0.015-0.018 0.032-0.036 0.048-0.054 0.005-0.006 0.010-0.011 0.015-0.016 0.012-0.012 0.023-0.024 0.035-0.036 0.007-0.007 0.014-0.013 0.020-0.019 0.011-0.010 0.022-0.020 0.033-0.030 0.007-0.007 0.015-0.013 0.022-0.020 0.011-0.009 0.022-0.019 0.033-0.028l0.024-0.019c0.011-0.009 0.022-0.017 0.034-0.026 0.008-0.006 0.017-0.012 0.025-0.018 0.012-0.008 0.023-0.016 0.035-0.025 0.008-0.006 0.017-0.011 0.025-0.017 0.012-0.008 0.025-0.016 0.038-0.024 0.008-0.005 0.016-0.010 0.025-0.015 0.014-0.008 0.028-0.016 0.042-0.024 0.007-0.004 0.014-0.008 0.022-0.012 0.020-0.011 0.041-0.021 0.061-0.031 0.002-0.001 0.003-0.001 0.005-0.002 0.022-0.010 0.045-0.020 0.067-0.030 0.007-0.003 0.015-0.006 0.022-0.009 0.015-0.006 0.031-0.012 0.047-0.018 0.009-0.003 0.018-0.006 0.027-0.009 0.014-0.005 0.029-0.010 0.044-0.014 0.010-0.003 0.020-0.006 0.030-0.009 0.014-0.004 0.029-0.008 0.043-0.012 0.010-0.003 0.021-0.005 0.031-0.008 0.014-0.003 0.029-0.007 0.043-0.010 0.010-0.002 0.021-0.005 0.032-0.007 0.015-0.003 0.029-0.005 0.044-0.008 0.010-0.002 0.021-0.004 0.031-0.005 0.015-0.002 0.031-0.004 0.047-0.006 0.010-0.001 0.020-0.002 0.030-0.003 0.017-0.002 0.035-0.003 0.052-0.004 0.009-0.001 0.017-0.001 0.026-0.002 0.026-0.001 0.052-0.002 0.079-0.002s0.052 0.001 0.079 0.002c0.009 0 0.017 0.001 0.026 0.002 0.017 0.001 0.035 0.002 0.052 0.004 0.010 0.001 0.020 0.002 0.030 0.003 0.016 0.002 0.031 0.004 0.047 0.006 0.011 0.001 0.021 0.003 0.031 0.005 0.015 0.002 0.030 0.005 0.044 0.008 0.011 0.002 0.021 0.004 0.032 0.007 0.014 0.003 0.029 0.006 0.043 0.010 0.010 0.002 0.021 0.005 0.031 0.008 0.014 0.004 0.029 0.008 0.043 0.012 0.010 0.003 0.020 0.006 0.030 0.009 0.015 0.005 0.029 0.009 0.044 0.014 0.009 0.003 0.018 0.006 0.027 0.009 0.016 0.006 0.032 0.012 0.047 0.018 0.007 0.003 0.015 0.006 0.022 0.009 0.023 0.009 0.045 0.019 0.067 0.030 0.002 0.001 0.003 0.002 0.005 0.002 0.021 0.010 0.041 0.020 0.061 0.031 0.007 0.004 0.014 0.008 0.022 0.012 0.014 0.008 0.029 0.016 0.042 0.024 0.008 0.005 0.017 0.010 0.025 0.015 0.013 0.008 0.025 0.016 0.038 0.024 0.008 0.006 0.017 0.011 0.025 0.017 0.012 0.008 0.024 0.016 0.035 0.025 0.008 0.006 0.017 0.012 0.025 0.018 0.011 0.009 0.023 0.017 0.034 0.026l0.024 0.019c0.011 0.009 0.022 0.018 0.033 0.028 0.008 0.007 0.015 0.013 0.022 0.020 0.011 0.010 0.022 0.020 0.033 0.030 0.007 0.006 0.014 0.013 0.020 0.019 0.012 0.012 0.023 0.024 0.035 0.036 0.005 0.005 0.010 0.010 0.016 0.016 0.016 0.018 0.032 0.036 0.048 0.054 0.002 0.002 0.004 0.005 0.006 0.007 0.013 0.016 0.027 0.032 0.040 0.049 0.005 0.007 0.010 0.013 0.015 0.020 0.010 0.013 0.019 0.025 0.028 0.038 0.005 0.008 0.011 0.016 0.016 0.024 0.008 0.012 0.016 0.024 0.024 0.037 0.005 0.009 0.010 0.017 0.016 0.026 0.007 0.012 0.015 0.024 0.022 0.037 0.005 0.009 0.010 0.018 0.015 0.027 0.007 0.012 0.013 0.025 0.020 0.037 0.005 0.009 0.009 0.018 0.014 0.027 0.006 0.013 0.012 0.026 0.018 0.039 0.004 0.009 0.008 0.018 0.012 0.027 0.006 0.014 0.012 0.028 0.017 0.042 0.004 0.009 0.007 0.017 0.010 0.026 0.006 0.016 0.012 0.033 0.017 0.049 0.002 0.007 0.005 0.014 0.007 0.020 0.007 0.023 0.014 0.047 0.021 0.071 0.001 0.004 0.002 0.008 0.003 0.012 0.005 0.020 0.010 0.040 0.014 0.060 0.002 0.009 0.003 0.017 0.005 0.026 0.003 0.013 0.005 0.025 0.007 0.038h1.078c0.053 0 0.097-0.042 0.097-0.095v-1.071h-0.409v-0.511h0.409v-0.657c0-0.31-0.19-0.584-0.485-0.699l-0.981-0.383h-3.712v3.415zM19.233 6.098h3.366l-0.945-2.16c-0.105-0.241-0.347-0.397-0.615-0.397h-1.806v2.556zM12.599 11.333c0.595 0 1.080-0.472 1.080-1.053s-0.484-1.053-1.080-1.053c-0.019 0-0.037 0-0.056 0.001-0.496 0.025-0.905 0.378-1.002 0.84-0.004 0.017-0.007 0.035-0.010 0.052-0.005 0.035-0.009 0.070-0.011 0.106-0.001 0.018-0.002 0.036-0.002 0.054 0 0.581 0.484 1.053 1.080 1.053zM8.836 8.347h0.409v0.511h-0.409v1.138c0 0.015 0.013 0.027 0.028 0.027h2.153c0.002-0.013 0.005-0.025 0.007-0.038 0.002-0.009 0.003-0.018 0.005-0.026 0.004-0.020 0.009-0.039 0.014-0.058 0.001-0.005 0.002-0.009 0.003-0.014 0.006-0.024 0.013-0.047 0.021-0.070 0.002-0.007 0.005-0.014 0.007-0.021 0.005-0.016 0.011-0.032 0.017-0.048 0.003-0.009 0.007-0.018 0.010-0.026 0.005-0.014 0.011-0.028 0.017-0.042 0.004-0.009 0.008-0.019 0.012-0.028 0.006-0.013 0.012-0.026 0.018-0.039 0.004-0.009 0.009-0.019 0.014-0.028 0.006-0.012 0.013-0.025 0.020-0.037 0.005-0.009 0.010-0.018 0.015-0.027 0.007-0.012 0.014-0.024 0.022-0.036 0.005-0.009 0.010-0.017 0.016-0.026 0.008-0.012 0.016-0.024 0.024-0.036 0.005-0.008 0.011-0.016 0.016-0.024 0.009-0.013 0.018-0.025 0.028-0.038 0.005-0.007 0.010-0.014 0.015-0.021 0.013-0.016 0.025-0.032 0.039-0.048 0.002-0.003 0.004-0.006 0.007-0.008 0.016-0.018 0.032-0.036 0.048-0.054 0.005-0.006 0.011-0.011 0.016-0.016 0.011-0.012 0.023-0.024 0.035-0.036 0.007-0.007 0.014-0.013 0.021-0.019 0.011-0.010 0.021-0.020 0.033-0.030 0.007-0.007 0.015-0.013 0.023-0.020 0.011-0.009 0.022-0.018 0.033-0.027 0.008-0.007 0.016-0.013 0.024-0.019 0.011-0.009 0.022-0.017 0.034-0.026 0.008-0.006 0.017-0.012 0.025-0.018 0.012-0.008 0.023-0.016 0.035-0.024 0.009-0.006 0.017-0.011 0.025-0.017 0.012-0.008 0.025-0.016 0.038-0.024 0.008-0.005 0.017-0.010 0.025-0.015 0.014-0.008 0.028-0.016 0.042-0.024 0.007-0.004 0.014-0.008 0.022-0.012 0.020-0.011 0.040-0.021 0.061-0.030 0.002-0.001 0.003-0.002 0.005-0.003 0.022-0.010 0.045-0.020 0.068-0.030 0.007-0.003 0.015-0.006 0.022-0.009 0.016-0.006 0.031-0.012 0.047-0.018 0.009-0.003 0.018-0.006 0.027-0.009 0.014-0.005 0.029-0.010 0.043-0.014 0.010-0.003 0.020-0.006 0.030-0.009 0.014-0.004 0.028-0.008 0.043-0.012 0.010-0.003 0.021-0.005 0.031-0.008 0.014-0.003 0.028-0.007 0.043-0.010 0.010-0.002 0.021-0.005 0.032-0.007 0.015-0.003 0.029-0.005 0.044-0.008 0.010-0.002 0.021-0.004 0.031-0.005 0.015-0.002 0.031-0.004 0.046-0.006 0.010-0.001 0.020-0.002 0.030-0.003 0.017-0.002 0.035-0.003 0.052-0.004 0.009-0.001 0.017-0.001 0.026-0.002 0.026-0.001 0.052-0.002 0.079-0.002s0.052 0.001 0.079 0.002c0.009 0 0.017 0.001 0.026 0.002 0.017 0.001 0.035 0.002 0.052 0.004 0.010 0.001 0.020 0.002 0.030 0.003 0.016 0.002 0.031 0.004 0.047 0.006 0.011 0.001 0.021 0.003 0.031 0.005 0.015 0.002 0.030 0.005 0.044 0.008 0.011 0.002 0.021 0.004 0.032 0.007 0.014 0.003 0.029 0.006 0.043 0.010 0.010 0.002 0.021 0.005 0.031 0.008 0.014 0.004 0.028 0.008 0.043 0.012 0.010 0.003 0.020 0.006 0.030 0.009 0.015 0.005 0.029 0.009 0.043 0.014 0.009 0.003 0.018 0.006 0.027 0.009 0.016 0.006 0.031 0.012 0.047 0.018 0.007 0.003 0.015 0.006 0.022 0.009 0.023 0.009 0.045 0.019 0.068 0.030 0.002 0.001 0.004 0.002 0.005 0.003 0.021 0.010 0.041 0.020 0.061 0.030 0.008 0.004 0.015 0.008 0.022 0.012 0.014 0.008 0.028 0.016 0.042 0.024 0.008 0.005 0.017 0.010 0.025 0.015 0.013 0.008 0.025 0.015 0.038 0.024 0.008 0.006 0.017 0.011 0.025 0.017 0.012 0.008 0.023 0.016 0.035 0.024 0.008 0.006 0.017 0.012 0.025 0.018 0.011 0.009 0.023 0.017 0.034 0.026 0.008 0.006 0.016 0.013 0.024 0.019 0.011 0.009 0.022 0.018 0.033 0.028 0.008 0.007 0.015 0.013 0.023 0.020 0.011 0.010 0.022 0.020 0.033 0.030 0.007 0.006 0.014 0.013 0.020 0.019 0.012 0.012 0.023 0.024 0.035 0.036 0.005 0.005 0.010 0.011 0.015 0.016 0.016 0.018 0.032 0.036 0.048 0.054 0.002 0.003 0.004 0.005 0.006 0.008 0.013 0.016 0.026 0.032 0.039 0.049 0.005 0.007 0.010 0.013 0.015 0.020 0.009 0.013 0.019 0.025 0.028 0.038 0.005 0.008 0.011 0.016 0.016 0.024 0.008 0.012 0.016 0.024 0.024 0.036 0.005 0.009 0.011 0.017 0.016 0.026 0.007 0.012 0.015 0.024 0.022 0.037 0.005 0.009 0.010 0.018 0.015 0.027 0.007 0.012 0.013 0.025 0.020 0.037 0.005 0.009 0.009 0.018 0.014 0.027 0.006 0.013 0.012 0.026 0.018 0.039 0.004 0.009 0.008 0.018 0.012 0.027 0.006 0.014 0.012 0.028 0.017 0.042 0.003 0.009 0.007 0.017 0.010 0.026 0.006 0.016 0.012 0.033 0.017 0.049 0.002 0.007 0.005 0.013 0.007 0.020 0.007 0.023 0.014 0.047 0.021 0.071 0.001 0.004 0.002 0.008 0.002 0.011 0.005 0.020 0.010 0.040 0.014 0.061 0.002 0.008 0.003 0.017 0.005 0.025 0.003 0.013 0.005 0.026 0.008 0.039h4.528v-7.597c0-0.141 0.117-0.256 0.262-0.256h3.789c0.006 0 0.026 0 0.039-0.023s0.001-0.039-0.002-0.044l-0.82-1.2c-0.079-0.116-0.212-0.185-0.355-0.185h-6.842c-0.038 0-0.074 0.015-0.101 0.041l-0.434 0.423c-0.126 0.123-0.293 0.191-0.472 0.191h-4.512c-0.234 0-0.424 0.186-0.424 0.414v6.56z"></path>
<path d="M15.627 2.825h1.658c0.335 0 0.607 0.266 0.607 0.592v5.471c0 0.141-0.117 0.256-0.262 0.256h-2.348c-0.145 0-0.262-0.115-0.262-0.256v-5.471c-0-0.327 0.272-0.592 0.607-0.592zM15.543 8.633h1.824v-3.006h-1.824v3.006zM15.543 5.116h1.824v-1.698c0-0.045-0.037-0.081-0.083-0.081h-1.658c-0.046 0-0.083 0.036-0.083 0.081l0 1.698z"></path>
<path d="M9.804 21.818v-4.836h2.999v0.628h-2.269v1.473h2.054v0.626h-2.054v2.109h-0.73zM15.714 20.314v-2.123h0.708v3.627h-0.694v-0.628h-0.038c-0.083 0.194-0.217 0.355-0.401 0.484-0.183 0.128-0.41 0.191-0.682 0.191-0.233 0-0.439-0.051-0.619-0.153-0.178-0.104-0.318-0.257-0.42-0.46-0.101-0.203-0.151-0.454-0.151-0.753v-2.307h0.706v2.222c0 0.247 0.069 0.444 0.205 0.59s0.315 0.22 0.534 0.22c0.132 0 0.264-0.033 0.394-0.099 0.132-0.066 0.242-0.166 0.328-0.3 0.088-0.134 0.131-0.304 0.13-0.51zM18.077 16.982v4.836h-0.706v-4.836h0.706zM19.733 16.982v4.836h-0.706v-4.836h0.706zM21.129 23.178c-0.105 0-0.201-0.009-0.288-0.026-0.087-0.016-0.151-0.033-0.194-0.052l0.17-0.579c0.129 0.035 0.244 0.050 0.345 0.045s0.19-0.042 0.267-0.113c0.079-0.071 0.148-0.187 0.208-0.347l0.087-0.241-1.327-3.674h0.756l0.919 2.815h0.038l0.919-2.815h0.758l-1.495 4.111c-0.069 0.189-0.157 0.349-0.264 0.479-0.107 0.132-0.235 0.231-0.383 0.298s-0.32 0.099-0.515 0.099zM1.378 25.294v4.836h-0.73v-4.836h0.73zM3.090 27.976v2.153h-0.706v-3.627h0.678v0.59h0.045c0.083-0.192 0.214-0.346 0.392-0.463 0.179-0.116 0.405-0.175 0.678-0.175 0.247 0 0.464 0.052 0.649 0.156 0.186 0.102 0.33 0.255 0.432 0.458s0.153 0.454 0.153 0.753v2.307h-0.706v-2.222c0-0.263-0.068-0.468-0.205-0.616-0.137-0.15-0.325-0.224-0.564-0.224-0.164 0-0.309 0.035-0.437 0.106-0.126 0.071-0.226 0.175-0.3 0.312-0.072 0.135-0.109 0.299-0.109 0.491zM8.051 26.503v0.567h-1.981v-0.567h1.981zM6.601 25.634h0.706v3.431c0 0.137 0.020 0.24 0.061 0.309 0.041 0.068 0.094 0.114 0.158 0.139 0.066 0.024 0.138 0.035 0.215 0.035 0.057 0 0.106-0.004 0.149-0.012s0.076-0.014 0.099-0.019l0.128 0.583c-0.041 0.016-0.099 0.032-0.175 0.047-0.076 0.017-0.17 0.027-0.283 0.028-0.186 0.003-0.359-0.030-0.519-0.099s-0.29-0.176-0.39-0.321c-0.099-0.145-0.149-0.327-0.149-0.545v-3.577zM10.356 30.203c-0.357 0-0.665-0.076-0.923-0.229-0.257-0.154-0.455-0.371-0.595-0.649-0.139-0.28-0.208-0.608-0.208-0.985 0-0.372 0.069-0.699 0.208-0.982 0.14-0.283 0.335-0.505 0.586-0.663 0.252-0.159 0.546-0.238 0.883-0.238 0.205 0 0.403 0.034 0.595 0.102s0.364 0.174 0.517 0.319c0.153 0.145 0.273 0.333 0.361 0.564 0.088 0.23 0.132 0.509 0.132 0.838v0.25h-2.883v-0.529h2.191c0-0.186-0.038-0.35-0.113-0.494-0.076-0.145-0.182-0.259-0.319-0.342-0.135-0.083-0.294-0.125-0.477-0.125-0.198 0-0.372 0.049-0.519 0.146-0.146 0.096-0.26 0.222-0.34 0.378-0.079 0.154-0.118 0.322-0.118 0.503v0.413c0 0.242 0.043 0.449 0.127 0.619 0.087 0.17 0.207 0.3 0.361 0.39 0.154 0.088 0.335 0.132 0.541 0.132 0.134 0 0.256-0.019 0.366-0.057 0.11-0.039 0.205-0.098 0.286-0.175s0.142-0.172 0.184-0.286l0.668 0.12c-0.054 0.197-0.15 0.369-0.288 0.517-0.137 0.146-0.309 0.261-0.517 0.342-0.206 0.080-0.442 0.12-0.706 0.12zM14.216 31.566c-0.288 0-0.536-0.038-0.744-0.113-0.206-0.076-0.375-0.175-0.505-0.3s-0.228-0.261-0.293-0.408l0.607-0.25c0.043 0.069 0.099 0.142 0.17 0.22 0.072 0.079 0.17 0.146 0.293 0.201 0.124 0.055 0.284 0.083 0.479 0.083 0.268 0 0.489-0.065 0.664-0.196 0.175-0.129 0.262-0.335 0.262-0.619v-0.713h-0.045c-0.043 0.077-0.104 0.163-0.184 0.257-0.079 0.094-0.187 0.176-0.326 0.246s-0.319 0.104-0.541 0.104c-0.287 0-0.545-0.067-0.774-0.201-0.228-0.135-0.409-0.335-0.543-0.597-0.132-0.264-0.198-0.59-0.198-0.975s0.065-0.716 0.196-0.992c0.132-0.276 0.313-0.486 0.543-0.633 0.23-0.148 0.49-0.222 0.782-0.222 0.225 0 0.407 0.038 0.545 0.113 0.139 0.074 0.246 0.161 0.323 0.26 0.079 0.099 0.139 0.187 0.182 0.262h0.052v-0.588h0.692v3.707c0 0.312-0.072 0.567-0.217 0.767s-0.341 0.348-0.588 0.444c-0.246 0.096-0.523 0.144-0.831 0.144zM14.209 29.49c0.203 0 0.375-0.047 0.515-0.142 0.142-0.096 0.249-0.233 0.321-0.411 0.074-0.179 0.111-0.394 0.111-0.645 0-0.244-0.036-0.459-0.109-0.645s-0.179-0.331-0.319-0.434c-0.14-0.105-0.313-0.158-0.519-0.158-0.213 0-0.39 0.055-0.531 0.165-0.142 0.109-0.249 0.257-0.321 0.444-0.071 0.187-0.106 0.397-0.106 0.628 0 0.238 0.036 0.446 0.109 0.626s0.179 0.32 0.321 0.42c0.143 0.101 0.32 0.151 0.529 0.151zM16.799 30.13v-3.627h0.682v0.576h0.038c0.066-0.195 0.183-0.349 0.349-0.46 0.168-0.113 0.359-0.17 0.571-0.17 0.044 0 0.096 0.002 0.156 0.005 0.061 0.003 0.109 0.007 0.144 0.012v0.675c-0.028-0.008-0.079-0.017-0.151-0.026-0.072-0.011-0.145-0.017-0.217-0.017-0.167 0-0.316 0.035-0.446 0.106-0.129 0.069-0.231 0.166-0.307 0.29-0.076 0.123-0.113 0.263-0.113 0.42v2.215h-0.706zM20.374 30.21c-0.23 0-0.438-0.043-0.623-0.128-0.186-0.087-0.333-0.212-0.442-0.375-0.107-0.164-0.161-0.364-0.161-0.602 0-0.205 0.039-0.373 0.118-0.505s0.185-0.237 0.319-0.314c0.134-0.077 0.283-0.135 0.449-0.175s0.334-0.069 0.505-0.090c0.217-0.025 0.394-0.046 0.529-0.061 0.135-0.017 0.234-0.045 0.295-0.083s0.092-0.099 0.092-0.184v-0.017c0-0.206-0.058-0.366-0.175-0.479-0.115-0.113-0.287-0.17-0.515-0.17-0.238 0-0.425 0.053-0.562 0.158-0.135 0.104-0.229 0.22-0.281 0.347l-0.663-0.151c0.079-0.22 0.194-0.398 0.345-0.534 0.153-0.137 0.328-0.236 0.527-0.298 0.198-0.063 0.407-0.094 0.626-0.094 0.145 0 0.298 0.017 0.46 0.052 0.164 0.033 0.316 0.094 0.458 0.184 0.143 0.090 0.261 0.218 0.352 0.385 0.091 0.165 0.137 0.38 0.137 0.645v2.409h-0.689v-0.496h-0.028c-0.046 0.091-0.114 0.181-0.205 0.269s-0.209 0.161-0.352 0.22c-0.143 0.058-0.315 0.087-0.515 0.087zM20.528 29.643c0.195 0 0.362-0.039 0.501-0.116 0.14-0.077 0.246-0.178 0.319-0.302 0.074-0.126 0.111-0.261 0.111-0.404v-0.468c-0.025 0.025-0.074 0.049-0.146 0.071-0.071 0.020-0.152 0.039-0.243 0.054-0.091 0.014-0.18 0.028-0.267 0.040-0.087 0.011-0.159 0.020-0.217 0.028-0.137 0.017-0.262 0.046-0.375 0.087-0.112 0.041-0.201 0.1-0.269 0.177-0.066 0.076-0.099 0.176-0.099 0.302 0 0.175 0.065 0.307 0.194 0.397 0.129 0.088 0.294 0.132 0.494 0.132zM24.797 26.503v0.567h-1.981v-0.567h1.981zM23.348 25.634h0.706v3.431c0 0.137 0.020 0.24 0.061 0.309 0.041 0.068 0.094 0.114 0.158 0.139 0.066 0.024 0.138 0.035 0.215 0.035 0.057 0 0.106-0.004 0.149-0.012s0.076-0.014 0.099-0.019l0.128 0.583c-0.041 0.016-0.099 0.032-0.175 0.047-0.076 0.017-0.17 0.027-0.283 0.028-0.186 0.003-0.359-0.030-0.519-0.099s-0.29-0.176-0.39-0.321c-0.099-0.145-0.149-0.327-0.149-0.545v-3.577zM27.103 30.203c-0.357 0-0.665-0.076-0.923-0.229-0.257-0.154-0.455-0.371-0.595-0.649-0.139-0.28-0.208-0.608-0.208-0.985 0-0.372 0.069-0.699 0.208-0.982 0.14-0.283 0.335-0.505 0.586-0.663 0.252-0.159 0.546-0.238 0.883-0.238 0.205 0 0.403 0.034 0.595 0.102s0.364 0.174 0.517 0.319c0.153 0.145 0.273 0.333 0.361 0.564 0.088 0.23 0.132 0.509 0.132 0.838v0.25h-2.883v-0.529h2.191c0-0.186-0.038-0.35-0.113-0.494-0.076-0.145-0.182-0.259-0.319-0.342-0.135-0.083-0.294-0.125-0.477-0.125-0.198 0-0.372 0.049-0.519 0.146-0.146 0.096-0.26 0.222-0.34 0.378-0.079 0.154-0.118 0.322-0.118 0.503v0.413c0 0.242 0.043 0.449 0.128 0.619 0.087 0.17 0.207 0.3 0.361 0.39 0.154 0.088 0.334 0.132 0.541 0.132 0.134 0 0.256-0.019 0.366-0.057 0.11-0.039 0.205-0.098 0.286-0.175s0.142-0.172 0.184-0.286l0.668 0.12c-0.054 0.197-0.15 0.369-0.288 0.517-0.137 0.146-0.309 0.261-0.517 0.342-0.206 0.080-0.442 0.12-0.706 0.12zM30.8 30.201c-0.293 0-0.554-0.075-0.784-0.224-0.228-0.151-0.408-0.366-0.538-0.645-0.129-0.28-0.194-0.616-0.194-1.008s0.065-0.727 0.196-1.006c0.132-0.279 0.313-0.492 0.543-0.64s0.49-0.222 0.782-0.222c0.225 0 0.406 0.038 0.543 0.113 0.139 0.074 0.246 0.161 0.321 0.26 0.077 0.099 0.137 0.187 0.179 0.262h0.043v-1.797h0.706v4.836h-0.689v-0.564h-0.059c-0.042 0.077-0.104 0.165-0.184 0.264-0.079 0.099-0.187 0.186-0.326 0.26s-0.318 0.111-0.538 0.111zM30.956 29.599c0.203 0 0.375-0.054 0.515-0.161 0.142-0.109 0.249-0.259 0.321-0.451 0.074-0.192 0.111-0.416 0.111-0.671 0-0.252-0.036-0.472-0.109-0.661s-0.179-0.336-0.319-0.442c-0.14-0.105-0.313-0.158-0.519-0.158-0.212 0-0.39 0.055-0.531 0.165s-0.249 0.261-0.321 0.451c-0.071 0.191-0.106 0.405-0.106 0.645 0 0.242 0.036 0.46 0.109 0.654s0.179 0.347 0.321 0.46c0.143 0.112 0.32 0.168 0.529 0.168z"></path>
</symbol>
<symbol id="icon-Kitchen" viewBox="0 0 31 32">
<path stroke-linejoin="round" stroke-linecap="round" stroke-miterlimit="4" stroke-width="0.9443" d="M20.372 10.754v-8.393c-3.369 3.213-3.513 5.819-3.497 8.393h3.497zM20.372 10.754v4.197h-0.699v-2.098M12.678 3.060v11.891M10.579 3.060v2.098c0 0.557 0.221 1.090 0.615 1.484s0.927 0.615 1.484 0.615c0.557 0 1.090-0.221 1.484-0.615s0.615-0.927 0.615-1.484v-2.098"></path>
<path d="M0.757 29.639v-6.104h0.921v2.915h0.075l2.56-2.915h1.159l-2.462 2.748 2.471 3.356h-1.109l-1.973-2.727-0.721 0.829v1.899h-0.921zM6.546 29.639v-4.578h0.891v4.578h-0.891zM6.996 24.355c-0.155 0-0.288-0.052-0.399-0.155-0.109-0.105-0.164-0.23-0.164-0.376 0-0.147 0.055-0.272 0.164-0.376 0.111-0.105 0.244-0.158 0.399-0.158s0.287 0.053 0.396 0.158c0.111 0.103 0.167 0.229 0.167 0.376 0 0.145-0.056 0.27-0.167 0.376-0.109 0.103-0.241 0.155-0.396 0.155zM10.773 25.061v0.715h-2.501v-0.715h2.501zM8.943 23.964h0.891v4.331c0 0.173 0.026 0.303 0.078 0.39 0.052 0.085 0.118 0.144 0.2 0.176 0.083 0.030 0.174 0.045 0.271 0.045 0.072 0 0.134-0.005 0.188-0.015s0.095-0.018 0.125-0.024l0.161 0.736c-0.052 0.020-0.125 0.040-0.221 0.060-0.095 0.022-0.215 0.034-0.358 0.036-0.234 0.004-0.453-0.038-0.656-0.125s-0.367-0.223-0.492-0.405c-0.125-0.183-0.188-0.412-0.188-0.689v-4.516zM13.638 29.732c-0.443 0-0.825-0.1-1.145-0.301-0.318-0.203-0.562-0.482-0.733-0.838s-0.256-0.763-0.256-1.222c0-0.465 0.087-0.875 0.262-1.231 0.175-0.358 0.421-0.637 0.739-0.837s0.693-0.301 1.124-0.301c0.348 0 0.658 0.065 0.93 0.194 0.272 0.127 0.492 0.306 0.659 0.537 0.169 0.23 0.269 0.5 0.301 0.808h-0.867c-0.048-0.215-0.157-0.399-0.328-0.554-0.169-0.155-0.395-0.233-0.68-0.233-0.248 0-0.466 0.066-0.653 0.197-0.185 0.129-0.329 0.314-0.432 0.554-0.103 0.238-0.155 0.521-0.155 0.847 0 0.334 0.051 0.622 0.152 0.864s0.244 0.43 0.429 0.563c0.187 0.133 0.406 0.2 0.659 0.2 0.169 0 0.322-0.031 0.459-0.092 0.139-0.064 0.255-0.154 0.349-0.271 0.095-0.117 0.162-0.258 0.2-0.423h0.867c-0.032 0.296-0.128 0.56-0.289 0.793s-0.377 0.415-0.647 0.548c-0.268 0.133-0.583 0.2-0.945 0.2zM17.363 26.921v2.718h-0.891v-6.104h0.879v2.271h0.057c0.107-0.246 0.271-0.442 0.492-0.587s0.509-0.218 0.864-0.218c0.314 0 0.588 0.065 0.823 0.194 0.236 0.129 0.419 0.322 0.548 0.578 0.131 0.254 0.197 0.572 0.197 0.954v2.912h-0.891v-2.805c0-0.336-0.086-0.596-0.259-0.781-0.173-0.187-0.413-0.28-0.721-0.28-0.211 0-0.399 0.045-0.566 0.134-0.165 0.089-0.295 0.221-0.39 0.393-0.093 0.171-0.14 0.378-0.14 0.62zM23.494 29.732c-0.451 0-0.84-0.096-1.165-0.289-0.324-0.195-0.574-0.468-0.751-0.82-0.175-0.354-0.262-0.768-0.262-1.243 0-0.469 0.087-0.882 0.262-1.24 0.177-0.358 0.423-0.637 0.739-0.837 0.318-0.201 0.69-0.301 1.115-0.301 0.258 0 0.509 0.043 0.751 0.128s0.46 0.22 0.653 0.402c0.193 0.183 0.345 0.42 0.456 0.712 0.111 0.29 0.167 0.643 0.167 1.058v0.316h-3.639v-0.668h2.766c0-0.235-0.048-0.442-0.143-0.623-0.095-0.183-0.23-0.327-0.402-0.432-0.171-0.105-0.372-0.158-0.602-0.158-0.25 0-0.469 0.062-0.656 0.185-0.185 0.121-0.328 0.28-0.429 0.477-0.099 0.195-0.149 0.406-0.149 0.635v0.522c0 0.306 0.054 0.566 0.161 0.781 0.109 0.215 0.261 0.379 0.456 0.492 0.195 0.111 0.422 0.167 0.683 0.167 0.169 0 0.323-0.024 0.462-0.072 0.139-0.050 0.259-0.123 0.361-0.221s0.179-0.218 0.233-0.361l0.844 0.152c-0.068 0.248-0.189 0.466-0.364 0.653-0.173 0.185-0.39 0.329-0.653 0.432-0.26 0.101-0.557 0.152-0.891 0.152zM27.339 26.921v2.718h-0.891v-4.578h0.855v0.745h0.057c0.105-0.242 0.27-0.437 0.495-0.584 0.227-0.147 0.512-0.221 0.855-0.221 0.312 0 0.585 0.066 0.82 0.197 0.235 0.129 0.416 0.322 0.545 0.578s0.194 0.573 0.194 0.951v2.912h-0.891v-2.805c0-0.332-0.086-0.591-0.259-0.778-0.173-0.189-0.41-0.283-0.712-0.283-0.207 0-0.39 0.045-0.551 0.134-0.159 0.089-0.285 0.221-0.379 0.393-0.091 0.171-0.137 0.378-0.137 0.62z"></path>
</symbol>
<symbol id="icon-tv" viewBox="0 0 17 32">
<path fill="none" stroke="#101828" style="stroke: var(--color1, #101828)" stroke-linejoin="round" stroke-linecap="round" stroke-miterlimit="4" stroke-width="0.9443" d="M12.59 13.902h-8.393c-1.163 0-2.098-0.936-2.098-2.098v-5.246c0-1.163 0.936-2.098 2.098-2.098h8.393c1.162 0 2.098 0.936 2.098 2.098v5.246c0 1.162-0.936 2.098-2.098 2.098z"></path>
<path fill="none" stroke="#101828" style="stroke: var(--color1, #101828)" stroke-linejoin="round" stroke-linecap="round" stroke-miterlimit="4" stroke-width="0.9443" d="M6.295 16h4.197"></path>
<path fill="none" stroke="#101828" style="stroke: var(--color1, #101828)" stroke-linejoin="round" stroke-linecap="round" stroke-miterlimit="4" stroke-width="0.9443" d="M8.393 4.459l3.148-3.148"></path>
<path fill="none" stroke="#101828" style="stroke: var(--color1, #101828)" stroke-linejoin="round" stroke-linecap="round" stroke-miterlimit="4" stroke-width="0.9443" d="M8.393 4.459l-3.148-3.148"></path>
<path d="M3.091 24.328v-0.793h4.724v0.793h-1.905v5.311h-0.918v-5.311h-1.902zM9.393 23.535l1.699 4.972h0.069l1.699-4.972h0.995l-2.197 6.104h-1.064l-2.197-6.104h0.995z"></path>
</symbol>
<symbol id="icon-van" viewBox="0 0 22 32">
<path d="M1.281 0.884h6.096c0.052 0 0.1-0.020 0.136-0.055l0.586-0.571c0.17-0.166 0.396-0.257 0.637-0.257h9.243c0.43 0 0.83 0.209 1.069 0.558l1.108 1.621c0.157 0.23 0.172 0.524 0.038 0.768s-0.393 0.395-0.677 0.395h-4.764v0.47h2.44c0.647 0 1.229 0.375 1.482 0.955l1.429 3.267 1.251 0.488c0.668 0.261 1.1 0.883 1.1 1.585v3.025c0 0.451-0.376 0.818-0.839 0.818h-1.456c-0.169 1.001-1.063 1.768-2.137 1.768s-1.968-0.767-2.137-1.768h-7.96c-0.169 1.001-1.063 1.768-2.137 1.768s-1.968-0.767-2.137-1.768h-2.909c-0.411 0-0.746-0.326-0.746-0.727v-11.090c0-0.689 0.575-1.25 1.281-1.25zM18.024 15.029c0.804 0 1.458-0.638 1.458-1.423s-0.654-1.423-1.458-1.423c-0.804 0-1.458 0.638-1.458 1.423s0.654 1.423 1.458 1.423zM14.754 13.261h1.133c0.003-0.017 0.007-0.034 0.010-0.051 0.002-0.012 0.004-0.023 0.007-0.035 0.006-0.027 0.012-0.054 0.019-0.081 0.001-0.006 0.003-0.011 0.004-0.017 0.009-0.032 0.018-0.064 0.028-0.096 0.003-0.009 0.006-0.018 0.009-0.028 0.007-0.022 0.015-0.044 0.023-0.066 0.005-0.012 0.009-0.023 0.014-0.035 0.007-0.019 0.015-0.038 0.023-0.057 0.005-0.012 0.011-0.025 0.016-0.037 0.008-0.018 0.016-0.035 0.024-0.053 0.006-0.012 0.012-0.025 0.019-0.037 0.008-0.017 0.018-0.034 0.027-0.051 0.006-0.012 0.013-0.024 0.020-0.037 0.009-0.017 0.019-0.033 0.029-0.049 0.007-0.012 0.014-0.023 0.021-0.035 0.011-0.017 0.021-0.033 0.033-0.049 0.007-0.011 0.014-0.022 0.022-0.032 0.012-0.017 0.025-0.035 0.038-0.052 0.006-0.009 0.013-0.018 0.020-0.027 0.018-0.023 0.035-0.044 0.054-0.066 0.003-0.003 0.005-0.007 0.008-0.010 0.021-0.025 0.043-0.049 0.065-0.073 0.007-0.007 0.014-0.014 0.021-0.022 0.016-0.016 0.031-0.033 0.047-0.049 0.009-0.009 0.018-0.017 0.027-0.026 0.014-0.014 0.029-0.028 0.044-0.041 0.010-0.009 0.020-0.018 0.030-0.027 0.015-0.013 0.029-0.025 0.044-0.038l0.032-0.026c0.015-0.012 0.030-0.024 0.046-0.035 0.011-0.008 0.022-0.017 0.034-0.025 0.016-0.011 0.031-0.022 0.048-0.033 0.011-0.007 0.023-0.015 0.034-0.023 0.017-0.011 0.034-0.022 0.051-0.032 0.011-0.007 0.022-0.014 0.033-0.020 0.019-0.011 0.038-0.022 0.057-0.032 0.010-0.005 0.020-0.011 0.029-0.016 0.027-0.014 0.055-0.028 0.083-0.041 0.002-0.001 0.004-0.002 0.006-0.003 0.030-0.014 0.061-0.028 0.091-0.040 0.010-0.004 0.020-0.008 0.030-0.012 0.021-0.008 0.042-0.017 0.064-0.025 0.012-0.004 0.025-0.008 0.037-0.013 0.020-0.007 0.039-0.013 0.059-0.019 0.013-0.004 0.027-0.008 0.040-0.012 0.019-0.006 0.038-0.011 0.058-0.016 0.014-0.004 0.028-0.007 0.042-0.011 0.019-0.005 0.038-0.009 0.058-0.013 0.014-0.003 0.028-0.006 0.043-0.009 0.020-0.004 0.040-0.007 0.060-0.010 0.014-0.003 0.028-0.005 0.042-0.007 0.021-0.003 0.042-0.006 0.063-0.008 0.013-0.001 0.027-0.003 0.040-0.004 0.023-0.002 0.047-0.004 0.070-0.005 0.012-0.001 0.023-0.002 0.035-0.002 0.035-0.002 0.070-0.003 0.106-0.003s0.071 0.001 0.106 0.003c0.012 0 0.023 0.001 0.035 0.002 0.024 0.001 0.047 0.003 0.070 0.005 0.014 0.001 0.027 0.003 0.040 0.004 0.021 0.002 0.042 0.005 0.063 0.008 0.014 0.002 0.028 0.004 0.043 0.007 0.020 0.003 0.040 0.007 0.060 0.010 0.014 0.003 0.029 0.006 0.043 0.009 0.020 0.004 0.039 0.008 0.058 0.013 0.014 0.003 0.028 0.007 0.042 0.011 0.019 0.005 0.038 0.011 0.058 0.016 0.014 0.004 0.027 0.008 0.040 0.012 0.020 0.006 0.039 0.013 0.059 0.019 0.012 0.004 0.025 0.008 0.037 0.013 0.021 0.008 0.043 0.016 0.064 0.025 0.010 0.004 0.020 0.008 0.030 0.012 0.031 0.013 0.061 0.026 0.091 0.040 0.002 0.001 0.004 0.002 0.006 0.003 0.028 0.013 0.055 0.027 0.083 0.041 0.010 0.005 0.019 0.011 0.029 0.016 0.019 0.011 0.038 0.021 0.057 0.032 0.011 0.007 0.022 0.014 0.033 0.020 0.017 0.011 0.034 0.021 0.051 0.032 0.011 0.007 0.023 0.015 0.034 0.023 0.016 0.011 0.032 0.022 0.048 0.033 0.011 0.008 0.023 0.016 0.034 0.025 0.015 0.012 0.031 0.023 0.046 0.035l0.032 0.026c0.015 0.012 0.030 0.025 0.044 0.038 0.010 0.009 0.020 0.018 0.030 0.027 0.015 0.014 0.030 0.027 0.044 0.041 0.009 0.009 0.018 0.017 0.027 0.026 0.016 0.016 0.032 0.032 0.047 0.049 0.007 0.007 0.014 0.014 0.021 0.022 0.022 0.024 0.044 0.048 0.065 0.073 0.003 0.003 0.005 0.007 0.008 0.010 0.018 0.022 0.036 0.044 0.053 0.066 0.007 0.009 0.013 0.018 0.020 0.027 0.013 0.017 0.026 0.034 0.038 0.052 0.007 0.011 0.014 0.021 0.022 0.032 0.011 0.017 0.022 0.033 0.033 0.049 0.007 0.012 0.014 0.023 0.021 0.035 0.010 0.016 0.020 0.033 0.029 0.049 0.007 0.012 0.014 0.024 0.020 0.037 0.009 0.017 0.018 0.034 0.027 0.051 0.006 0.012 0.012 0.025 0.019 0.037 0.008 0.018 0.016 0.035 0.024 0.053 0.006 0.012 0.011 0.024 0.016 0.037 0.008 0.019 0.016 0.038 0.023 0.057 0.005 0.012 0.009 0.023 0.014 0.035 0.008 0.022 0.016 0.044 0.023 0.066 0.003 0.009 0.006 0.018 0.009 0.028 0.010 0.031 0.019 0.063 0.028 0.096 0.002 0.006 0.003 0.011 0.004 0.017 0.007 0.027 0.013 0.054 0.019 0.081 0.003 0.012 0.005 0.023 0.007 0.035 0.003 0.017 0.007 0.034 0.010 0.051h1.456c0.072 0 0.131-0.057 0.131-0.128v-1.447h-0.552v-0.691h0.552v-0.887c0-0.418-0.257-0.789-0.655-0.944l-1.325-0.517h-5.015v4.614zM14.754 7.956h4.547l-1.276-2.918c-0.142-0.325-0.469-0.536-0.831-0.536h-2.44v3.453zM5.791 15.029c0.804 0 1.458-0.638 1.458-1.423s-0.654-1.423-1.458-1.423c-0.025 0-0.050 0.001-0.075 0.002-0.67 0.033-1.222 0.51-1.354 1.134-0.005 0.023-0.009 0.047-0.013 0.070-0.007 0.047-0.012 0.095-0.015 0.143-0.001 0.024-0.002 0.049-0.002 0.073 0 0.785 0.654 1.423 1.458 1.423zM0.708 10.995h0.552v0.691h-0.552v1.538c0 0.020 0.017 0.037 0.038 0.037h2.908c0.003-0.017 0.006-0.034 0.010-0.051 0.002-0.012 0.004-0.024 0.007-0.036 0.006-0.027 0.012-0.053 0.019-0.079 0.002-0.006 0.003-0.012 0.005-0.019 0.009-0.032 0.018-0.063 0.028-0.095 0.003-0.010 0.006-0.019 0.010-0.029 0.007-0.022 0.015-0.044 0.023-0.065 0.005-0.012 0.009-0.024 0.014-0.036 0.007-0.019 0.015-0.038 0.023-0.056 0.005-0.013 0.011-0.025 0.017-0.038 0.008-0.017 0.016-0.035 0.024-0.052 0.006-0.013 0.012-0.025 0.019-0.038 0.009-0.017 0.017-0.033 0.026-0.050 0.007-0.012 0.014-0.024 0.020-0.037 0.010-0.017 0.019-0.033 0.029-0.049 0.007-0.012 0.014-0.023 0.022-0.035 0.010-0.017 0.021-0.033 0.032-0.049 0.007-0.011 0.014-0.022 0.022-0.033 0.012-0.017 0.025-0.034 0.037-0.051 0.007-0.009 0.014-0.019 0.021-0.028 0.017-0.022 0.034-0.043 0.052-0.065 0.003-0.004 0.006-0.008 0.009-0.011 0.021-0.025 0.043-0.049 0.065-0.073 0.007-0.007 0.014-0.015 0.021-0.022 0.016-0.016 0.031-0.032 0.047-0.048 0.009-0.009 0.018-0.017 0.028-0.026 0.014-0.014 0.029-0.027 0.044-0.041 0.010-0.009 0.020-0.018 0.031-0.027 0.014-0.012 0.029-0.025 0.044-0.037 0.011-0.009 0.022-0.018 0.033-0.026 0.015-0.012 0.030-0.023 0.045-0.035 0.011-0.008 0.022-0.017 0.034-0.025 0.016-0.011 0.031-0.022 0.047-0.033 0.012-0.008 0.023-0.015 0.034-0.023 0.017-0.011 0.034-0.022 0.051-0.032 0.011-0.007 0.022-0.014 0.034-0.020 0.019-0.011 0.038-0.022 0.057-0.032 0.010-0.005 0.020-0.011 0.030-0.016 0.027-0.014 0.054-0.028 0.082-0.041 0.002-0.001 0.005-0.002 0.007-0.004 0.030-0.014 0.061-0.028 0.091-0.040 0.010-0.004 0.020-0.008 0.030-0.012 0.021-0.008 0.042-0.017 0.064-0.025 0.012-0.004 0.025-0.008 0.037-0.013 0.019-0.007 0.039-0.013 0.059-0.019 0.013-0.004 0.027-0.008 0.040-0.012 0.019-0.006 0.038-0.011 0.058-0.016 0.014-0.004 0.028-0.007 0.042-0.011 0.019-0.005 0.039-0.009 0.058-0.013 0.014-0.003 0.028-0.006 0.043-0.009 0.020-0.004 0.040-0.007 0.060-0.010 0.014-0.003 0.028-0.005 0.042-0.007 0.021-0.003 0.042-0.006 0.063-0.008 0.013-0.001 0.027-0.003 0.040-0.004 0.023-0.002 0.047-0.004 0.070-0.005 0.012-0.001 0.023-0.002 0.035-0.002 0.035-0.002 0.071-0.003 0.106-0.003s0.071 0.001 0.106 0.003c0.012 0 0.023 0.001 0.035 0.002 0.023 0.001 0.047 0.003 0.070 0.005 0.014 0.001 0.027 0.003 0.041 0.004 0.021 0.002 0.042 0.005 0.063 0.008 0.014 0.002 0.028 0.004 0.042 0.007 0.020 0.003 0.040 0.007 0.060 0.010 0.014 0.003 0.029 0.006 0.043 0.009 0.020 0.004 0.039 0.008 0.058 0.013 0.014 0.003 0.028 0.007 0.042 0.011 0.019 0.005 0.038 0.011 0.058 0.016 0.013 0.004 0.027 0.008 0.040 0.012 0.020 0.006 0.039 0.013 0.059 0.019 0.012 0.004 0.025 0.008 0.037 0.013 0.021 0.008 0.043 0.016 0.064 0.025 0.010 0.004 0.020 0.008 0.030 0.012 0.031 0.013 0.061 0.026 0.091 0.040 0.003 0.001 0.005 0.002 0.007 0.004 0.028 0.013 0.055 0.027 0.082 0.041 0.010 0.005 0.020 0.011 0.030 0.016 0.019 0.011 0.038 0.021 0.057 0.032 0.011 0.007 0.022 0.014 0.034 0.020 0.017 0.010 0.034 0.021 0.051 0.032 0.011 0.007 0.023 0.015 0.034 0.023 0.016 0.011 0.032 0.022 0.047 0.033 0.011 0.008 0.023 0.016 0.034 0.025 0.015 0.012 0.031 0.023 0.045 0.035 0.011 0.009 0.022 0.017 0.033 0.026 0.015 0.012 0.030 0.025 0.044 0.037 0.010 0.009 0.021 0.018 0.031 0.027 0.015 0.014 0.029 0.027 0.044 0.041 0.009 0.009 0.018 0.017 0.027 0.026 0.016 0.016 0.032 0.032 0.047 0.048 0.007 0.007 0.014 0.014 0.021 0.022 0.022 0.024 0.044 0.048 0.065 0.073 0.003 0.004 0.006 0.007 0.008 0.011 0.018 0.022 0.036 0.043 0.053 0.066 0.007 0.009 0.014 0.018 0.020 0.027 0.013 0.017 0.026 0.034 0.038 0.052 0.007 0.011 0.014 0.022 0.022 0.032 0.011 0.016 0.022 0.033 0.032 0.049 0.007 0.012 0.014 0.023 0.021 0.035 0.010 0.016 0.020 0.033 0.029 0.049 0.007 0.012 0.014 0.024 0.020 0.037 0.009 0.017 0.018 0.034 0.027 0.051 0.006 0.012 0.012 0.025 0.018 0.037 0.008 0.018 0.016 0.035 0.024 0.053 0.006 0.012 0.011 0.024 0.016 0.037 0.008 0.019 0.016 0.038 0.023 0.057 0.005 0.012 0.009 0.023 0.014 0.035 0.008 0.022 0.016 0.044 0.023 0.067 0.003 0.009 0.006 0.018 0.009 0.027 0.010 0.031 0.019 0.064 0.028 0.096 0.001 0.005 0.002 0.010 0.003 0.015 0.007 0.027 0.014 0.055 0.020 0.082 0.003 0.011 0.005 0.022 0.006 0.034 0.003 0.017 0.007 0.035 0.010 0.052h6.117v-10.263c0-0.191 0.159-0.345 0.354-0.345h5.118c0.009 0 0.036 0 0.052-0.031s0.002-0.052-0.003-0.059l-1.108-1.621c-0.107-0.157-0.287-0.251-0.48-0.251h-9.243c-0.052 0-0.1 0.020-0.137 0.055l-0.586 0.571c-0.17 0.166-0.396 0.257-0.637 0.257h-6.096c-0.316 0-0.573 0.251-0.573 0.559v8.861z"></path>
<path d="M2.719 3.536h4.33c0.5 0 0.908 0.397 0.908 0.885v2.014c0 0.488-0.407 0.885-0.908 0.885h-4.33c-0.5 0-0.908-0.397-0.908-0.885v-2.014c0-0.488 0.407-0.885 0.908-0.885zM2.52 6.435c0 0.107 0.089 0.195 0.2 0.195h4.33c0.11 0 0.2-0.087 0.2-0.195v-2.014c0-0.107-0.090-0.195-0.2-0.195h-4.33c-0.11 0-0.2 0.087-0.2 0.195l0 2.014z"></path>
<path d="M4.372 23.222l1.818 5.321h0.073l1.818-5.321h1.065l-2.351 6.533h-1.139l-2.351-6.533h1.065zM10.957 29.863c-0.31 0-0.591-0.057-0.842-0.172-0.251-0.117-0.45-0.286-0.597-0.507-0.145-0.221-0.217-0.492-0.217-0.813 0-0.276 0.053-0.504 0.159-0.683s0.25-0.32 0.431-0.424c0.181-0.104 0.383-0.183 0.606-0.236s0.451-0.094 0.683-0.121c0.293-0.034 0.532-0.062 0.714-0.083 0.183-0.023 0.316-0.061 0.399-0.112s0.124-0.134 0.124-0.249v-0.022c0-0.279-0.079-0.494-0.236-0.648-0.155-0.153-0.387-0.23-0.695-0.23-0.321 0-0.574 0.071-0.759 0.214-0.183 0.14-0.309 0.297-0.38 0.469l-0.896-0.204c0.106-0.298 0.262-0.538 0.466-0.721 0.206-0.185 0.443-0.319 0.711-0.402 0.268-0.085 0.55-0.128 0.845-0.128 0.196 0 0.403 0.023 0.622 0.070 0.221 0.045 0.427 0.128 0.619 0.249 0.194 0.121 0.352 0.294 0.475 0.52 0.123 0.223 0.185 0.514 0.185 0.871v3.254h-0.931v-0.67h-0.038c-0.062 0.123-0.154 0.245-0.277 0.364s-0.282 0.218-0.475 0.297c-0.194 0.079-0.425 0.118-0.695 0.118zM11.165 29.097c0.264 0 0.489-0.052 0.676-0.156 0.189-0.104 0.333-0.24 0.431-0.408 0.1-0.17 0.15-0.352 0.15-0.545v-0.632c-0.034 0.034-0.1 0.066-0.198 0.096-0.096 0.028-0.205 0.052-0.329 0.073-0.123 0.019-0.243 0.037-0.36 0.054-0.117 0.015-0.215 0.028-0.293 0.038-0.185 0.023-0.354 0.063-0.507 0.118-0.151 0.055-0.272 0.135-0.364 0.239-0.089 0.102-0.134 0.238-0.134 0.408 0 0.236 0.087 0.415 0.262 0.536 0.174 0.119 0.397 0.179 0.667 0.179zM15.599 26.845v2.909h-0.954v-4.9h0.915v0.797h0.061c0.113-0.259 0.289-0.468 0.53-0.625 0.242-0.157 0.548-0.236 0.915-0.236 0.334 0 0.626 0.070 0.877 0.211 0.251 0.138 0.445 0.344 0.584 0.619s0.207 0.613 0.207 1.018v3.116h-0.954v-3.002c0-0.355-0.093-0.633-0.277-0.832-0.185-0.202-0.439-0.303-0.762-0.303-0.221 0-0.418 0.048-0.59 0.144-0.17 0.096-0.305 0.236-0.405 0.421-0.098 0.183-0.147 0.404-0.147 0.663z"></path>
</symbol>
<symbol id="icon-wc" viewBox="0 0 47 32">
<path fill="none" stroke="#101828" style="stroke: var(--color1, #101828)" stroke-linejoin="round" stroke-linecap="round" stroke-miterlimit="4" stroke-width="1.0492" d="M18.011 3.060l1.749 1.749M24.656 4.809c-0.651-0.638-1.529-0.994-2.441-0.989s-1.786 0.369-2.431 1.014-1.009 1.519-1.014 2.431c-0.005 0.912 0.351 1.789 0.989 2.441M25.705 3.76l-6.995 6.995M25.005 12.153v0.007M22.208 11.454v0.007M24.306 9.355v0.007M26.404 7.257v0.007M22.907 14.251v0.007M27.104 10.055v0.007M29.202 7.956v0.007"></path>
<path d="M4.004 25.139c-0.032-0.282-0.163-0.501-0.393-0.656-0.231-0.157-0.521-0.235-0.87-0.235-0.25 0-0.467 0.040-0.65 0.119-0.183 0.077-0.325 0.185-0.426 0.322-0.099 0.135-0.149 0.289-0.149 0.462 0 0.145 0.034 0.27 0.101 0.376 0.070 0.105 0.16 0.194 0.271 0.265 0.113 0.070 0.234 0.128 0.364 0.176 0.129 0.046 0.253 0.083 0.373 0.113l0.596 0.155c0.195 0.048 0.394 0.112 0.599 0.194s0.394 0.189 0.569 0.322c0.175 0.133 0.316 0.298 0.423 0.495 0.109 0.197 0.164 0.432 0.164 0.706 0 0.346-0.089 0.653-0.268 0.921-0.177 0.268-0.434 0.48-0.772 0.635-0.336 0.155-0.742 0.233-1.219 0.233-0.457 0-0.852-0.073-1.186-0.218s-0.595-0.351-0.784-0.617c-0.189-0.268-0.293-0.586-0.313-0.954h0.924c0.018 0.221 0.089 0.404 0.215 0.551 0.127 0.145 0.289 0.253 0.486 0.325 0.199 0.070 0.416 0.104 0.653 0.104 0.26 0 0.492-0.041 0.695-0.122 0.205-0.083 0.366-0.199 0.483-0.346 0.117-0.149 0.176-0.323 0.176-0.522 0-0.181-0.052-0.329-0.155-0.444-0.101-0.115-0.239-0.211-0.414-0.286-0.173-0.076-0.369-0.142-0.587-0.2l-0.721-0.197c-0.489-0.133-0.876-0.329-1.162-0.587-0.284-0.258-0.426-0.6-0.426-1.025 0-0.352 0.095-0.659 0.286-0.921s0.449-0.466 0.775-0.611c0.326-0.147 0.694-0.221 1.103-0.221 0.413 0 0.778 0.073 1.094 0.218 0.318 0.145 0.568 0.345 0.751 0.599 0.183 0.252 0.278 0.542 0.286 0.87h-0.888zM6.896 26.921v2.718h-0.891v-6.104h0.879v2.271h0.057c0.107-0.246 0.271-0.442 0.492-0.587s0.509-0.218 0.864-0.218c0.314 0 0.588 0.065 0.823 0.194 0.236 0.129 0.419 0.322 0.548 0.578 0.131 0.254 0.197 0.572 0.197 0.954v2.912h-0.891v-2.805c0-0.336-0.086-0.596-0.259-0.781-0.173-0.187-0.413-0.28-0.721-0.28-0.211 0-0.399 0.045-0.566 0.134-0.165 0.089-0.295 0.221-0.391 0.393-0.093 0.171-0.14 0.378-0.14 0.62zM12.982 29.732c-0.429 0-0.804-0.098-1.124-0.295s-0.568-0.472-0.745-0.826c-0.177-0.354-0.265-0.767-0.265-1.24 0-0.475 0.088-0.89 0.265-1.246s0.425-0.632 0.745-0.829c0.32-0.197 0.694-0.295 1.124-0.295s0.804 0.098 1.124 0.295c0.32 0.197 0.568 0.473 0.745 0.829s0.265 0.771 0.265 1.246c0 0.473-0.088 0.886-0.265 1.24s-0.425 0.629-0.745 0.826c-0.32 0.197-0.694 0.295-1.124 0.295zM12.986 28.984c0.278 0 0.509-0.074 0.691-0.221s0.318-0.343 0.405-0.587c0.089-0.244 0.134-0.514 0.134-0.808 0-0.292-0.045-0.56-0.134-0.805-0.087-0.246-0.223-0.444-0.405-0.593s-0.413-0.224-0.691-0.224c-0.28 0-0.513 0.075-0.697 0.224-0.183 0.149-0.319 0.347-0.408 0.593-0.087 0.244-0.131 0.513-0.131 0.805 0 0.294 0.044 0.563 0.131 0.808 0.089 0.244 0.226 0.44 0.408 0.587 0.185 0.147 0.417 0.221 0.697 0.221zM16.965 29.639l-1.347-4.578h0.921l0.897 3.362h0.045l0.9-3.362h0.921l0.894 3.347h0.045l0.891-3.347h0.921l-1.344 4.578h-0.909l-0.93-3.305h-0.069l-0.93 3.305h-0.906zM24.732 29.732c-0.451 0-0.84-0.096-1.165-0.289-0.324-0.195-0.574-0.468-0.751-0.82-0.175-0.354-0.262-0.768-0.262-1.243 0-0.469 0.087-0.882 0.262-1.24 0.177-0.358 0.423-0.637 0.739-0.837 0.318-0.201 0.69-0.301 1.115-0.301 0.258 0 0.509 0.043 0.751 0.128s0.46 0.22 0.653 0.402c0.193 0.183 0.345 0.42 0.456 0.712 0.111 0.29 0.167 0.643 0.167 1.058v0.316h-3.639v-0.668h2.766c0-0.235-0.048-0.442-0.143-0.623-0.095-0.183-0.23-0.327-0.402-0.432-0.171-0.105-0.372-0.158-0.602-0.158-0.25 0-0.469 0.062-0.656 0.185-0.185 0.121-0.328 0.28-0.429 0.477-0.099 0.195-0.149 0.406-0.149 0.635v0.522c0 0.306 0.054 0.566 0.161 0.781 0.109 0.215 0.261 0.379 0.456 0.492 0.195 0.111 0.422 0.167 0.683 0.167 0.169 0 0.323-0.024 0.462-0.072 0.139-0.050 0.259-0.123 0.361-0.221s0.179-0.218 0.233-0.361l0.844 0.152c-0.068 0.248-0.189 0.466-0.364 0.653-0.173 0.185-0.39 0.329-0.653 0.432-0.26 0.101-0.557 0.152-0.891 0.152zM27.685 29.639v-4.578h0.861v0.727h0.048c0.083-0.246 0.23-0.44 0.441-0.581 0.213-0.143 0.453-0.215 0.721-0.215 0.056 0 0.121 0.002 0.197 0.006 0.077 0.004 0.138 0.009 0.182 0.015v0.852c-0.036-0.010-0.099-0.021-0.191-0.033-0.091-0.014-0.183-0.021-0.274-0.021-0.211 0-0.398 0.045-0.563 0.134-0.163 0.087-0.292 0.21-0.387 0.367-0.095 0.155-0.143 0.332-0.143 0.531v2.796h-0.891zM32.953 23.249l-1.967 7.308h-0.796l1.967-7.309h0.796zM35.001 29.639l-1.693-6.104h0.969l1.189 4.727h0.057l1.237-4.727h0.96l1.237 4.73h0.057l1.186-4.73h0.972l-1.696 6.104h-0.927l-1.285-4.572h-0.048l-1.285 4.572h-0.93zM46.778 25.52h-0.93c-0.036-0.199-0.102-0.374-0.2-0.525s-0.217-0.279-0.358-0.384c-0.141-0.105-0.299-0.185-0.474-0.238-0.173-0.054-0.357-0.080-0.551-0.080-0.352 0-0.667 0.088-0.945 0.265-0.276 0.177-0.495 0.436-0.656 0.778-0.159 0.342-0.238 0.759-0.238 1.252 0 0.497 0.079 0.916 0.238 1.258 0.161 0.342 0.381 0.6 0.659 0.775s0.591 0.262 0.939 0.262c0.193 0 0.376-0.026 0.548-0.077 0.175-0.054 0.333-0.132 0.474-0.235s0.26-0.23 0.358-0.379c0.099-0.151 0.168-0.324 0.206-0.519l0.93 0.003c-0.050 0.3-0.146 0.576-0.289 0.829-0.141 0.25-0.323 0.467-0.545 0.65-0.221 0.181-0.473 0.321-0.757 0.42s-0.594 0.149-0.93 0.149c-0.529 0-0.999-0.125-1.413-0.376-0.413-0.252-0.739-0.613-0.978-1.082-0.236-0.469-0.355-1.028-0.355-1.678 0-0.652 0.119-1.211 0.358-1.678 0.238-0.469 0.564-0.829 0.978-1.079 0.413-0.252 0.883-0.379 1.41-0.379 0.324 0 0.626 0.047 0.906 0.14 0.282 0.091 0.535 0.227 0.76 0.405 0.225 0.177 0.41 0.393 0.557 0.65 0.147 0.254 0.246 0.545 0.298 0.873z"></path>
</symbol>
<symbol id="icon-ac" viewBox="0 0 17 32">
<path d="M8.2 5.101c-0.584 0-1.151 0.208-1.602 0.588s-0.762 0.909-0.876 1.496l-0.045 0.233c-0.012 0.052-0.014 0.106-0.005 0.159s0.028 0.103 0.056 0.148c0.028 0.045 0.065 0.084 0.108 0.114s0.092 0.051 0.143 0.062 0.104 0.010 0.155-0 0.1-0.032 0.143-0.063c0.043-0.030 0.079-0.069 0.107-0.115s0.047-0.096 0.055-0.149l0.046-0.232c0.086-0.436 0.327-0.823 0.676-1.087s0.781-0.386 1.212-0.342c0.431 0.044 0.831 0.25 1.123 0.58s0.453 0.758 0.454 1.202c0 0.477-0.184 0.934-0.513 1.271s-0.774 0.527-1.239 0.527h-5.644c-0.103 0-0.202 0.042-0.275 0.117s-0.114 0.176-0.114 0.282c0 0.106 0.041 0.207 0.114 0.282s0.172 0.117 0.275 0.117h5.644c0.66-0.017 1.288-0.297 1.749-0.782s0.72-1.135 0.72-1.812c0-0.677-0.258-1.328-0.719-1.813s-1.089-0.766-1.749-0.783zM12.675 8.694c-0.516 0-1.011 0.21-1.376 0.585s-0.57 0.882-0.57 1.412c0 0.106 0.041 0.207 0.114 0.282s0.172 0.117 0.275 0.117c0.103 0 0.202-0.042 0.275-0.117s0.114-0.176 0.114-0.282c0-0.237 0.068-0.468 0.197-0.665s0.311-0.351 0.524-0.441c0.213-0.091 0.448-0.114 0.675-0.068s0.435 0.16 0.598 0.328c0.163 0.168 0.275 0.381 0.32 0.613s0.022 0.473-0.066 0.692c-0.088 0.219-0.238 0.406-0.43 0.538s-0.418 0.202-0.649 0.202h-10.121c-0.103 0-0.202 0.042-0.275 0.117s-0.114 0.176-0.114 0.282c0 0.106 0.041 0.207 0.114 0.282s0.172 0.117 0.275 0.117h7.59c0.258 0.001 0.505 0.106 0.688 0.294s0.284 0.442 0.284 0.706c-0.001 0.265-0.104 0.518-0.286 0.705s-0.431 0.291-0.689 0.291c-0.232 0-0.458-0.084-0.635-0.238s-0.297-0.367-0.336-0.602l-0.004-0.024c-0.007-0.053-0.024-0.104-0.051-0.15s-0.062-0.086-0.104-0.118c-0.042-0.032-0.090-0.055-0.14-0.067s-0.103-0.014-0.155-0.006c-0.051 0.009-0.101 0.028-0.145 0.057s-0.082 0.066-0.112 0.11c-0.030 0.044-0.050 0.094-0.061 0.146s-0.011 0.106-0.001 0.159l0.004 0.024c0.069 0.421 0.282 0.804 0.6 1.080s0.722 0.427 1.138 0.427c0.465 0 0.911-0.189 1.24-0.526s0.515-0.794 0.515-1.271c0-0.37-0.109-0.713-0.295-0.998h1.074c0.516 0 1.011-0.21 1.376-0.585s0.57-0.882 0.57-1.411-0.205-1.037-0.57-1.412c-0.365-0.374-0.86-0.585-1.376-0.585z"></path>
<path d="M4.522 27.245h-0.806l1.811-5.033h0.877l1.811 5.033h-0.806l-1.423-4.119h-0.039l-1.425 4.119zM4.657 25.274h2.615v0.639h-2.615v-0.639zM12.886 23.849h-0.767c-0.030-0.164-0.084-0.308-0.165-0.433s-0.179-0.23-0.295-0.317c-0.116-0.087-0.247-0.152-0.391-0.197-0.143-0.044-0.294-0.066-0.455-0.066-0.29 0-0.55 0.073-0.779 0.219-0.228 0.146-0.408 0.36-0.541 0.641-0.131 0.282-0.197 0.626-0.197 1.032 0 0.41 0.066 0.755 0.197 1.037 0.133 0.282 0.314 0.495 0.543 0.639s0.487 0.216 0.774 0.216c0.159 0 0.31-0.021 0.452-0.064 0.144-0.044 0.274-0.109 0.391-0.194s0.215-0.189 0.295-0.312c0.082-0.124 0.138-0.267 0.17-0.428l0.767 0.002c-0.041 0.247-0.12 0.475-0.238 0.683-0.116 0.206-0.266 0.385-0.45 0.536-0.182 0.149-0.39 0.265-0.624 0.346s-0.49 0.123-0.767 0.123c-0.436 0-0.824-0.103-1.165-0.31-0.341-0.208-0.609-0.505-0.806-0.892-0.195-0.387-0.292-0.848-0.292-1.384 0-0.537 0.098-0.999 0.295-1.384 0.197-0.387 0.465-0.683 0.806-0.89 0.341-0.208 0.728-0.312 1.162-0.312 0.267 0 0.516 0.039 0.747 0.116 0.233 0.075 0.442 0.187 0.627 0.334 0.185 0.146 0.338 0.324 0.46 0.536 0.121 0.21 0.203 0.45 0.246 0.72z"></path>
</symbol>
<symbol id="icon-acmin" viewBox="0 0 32 32">
<path d="M15.504 3.2c-1.501 0-2.956 0.513-4.117 1.45s-1.956 2.241-2.251 3.69l-0.116 0.575c-0.031 0.129-0.035 0.262-0.012 0.392s0.072 0.255 0.144 0.366c0.073 0.111 0.167 0.207 0.278 0.281s0.236 0.126 0.367 0.152c0.132 0.026 0.267 0.025 0.399-0.001s0.256-0.079 0.366-0.155c0.11-0.075 0.204-0.171 0.276-0.283s0.12-0.236 0.142-0.367l0.118-0.573c0.222-1.075 0.84-2.030 1.737-2.681s2.006-0.951 3.114-0.843c1.108 0.108 2.136 0.618 2.884 1.43s1.164 1.868 1.167 2.965c0 1.175-0.474 2.302-1.318 3.134s-1.988 1.298-3.182 1.299h-14.5c-0.265 0-0.52 0.104-0.707 0.288s-0.293 0.435-0.293 0.696c0 0.261 0.105 0.512 0.293 0.696s0.442 0.288 0.707 0.288h14.5c1.696-0.041 3.309-0.733 4.494-1.928s1.849-2.799 1.849-4.47-0.662-3.275-1.846-4.471c-1.184-1.196-2.796-1.889-4.492-1.931zM27 12.062c-1.326 0-2.598 0.519-3.536 1.442s-1.464 2.175-1.464 3.481c0 0.261 0.105 0.512 0.293 0.696s0.442 0.288 0.707 0.288 0.52-0.104 0.707-0.288c0.188-0.185 0.293-0.435 0.293-0.696 0-0.584 0.176-1.155 0.506-1.641s0.798-0.864 1.346-1.088c0.548-0.224 1.151-0.282 1.733-0.168s1.116 0.395 1.536 0.808c0.42 0.413 0.705 0.939 0.821 1.512s0.056 1.167-0.171 1.707c-0.227 0.54-0.612 1.001-1.105 1.326s-1.073 0.498-1.667 0.498h-26c-0.265 0-0.52 0.104-0.707 0.288s-0.293 0.435-0.293 0.696c0 0.261 0.105 0.512 0.293 0.696s0.442 0.288 0.707 0.288h19.5c0.663 0.001 1.298 0.262 1.766 0.724s0.73 1.089 0.729 1.742c-0.001 0.653-0.266 1.279-0.736 1.739s-1.106 0.719-1.769 0.717c-0.597 0-1.175-0.207-1.632-0.587s-0.762-0.905-0.862-1.485l-0.010-0.059c-0.018-0.131-0.062-0.256-0.131-0.37s-0.159-0.212-0.267-0.29-0.23-0.134-0.36-0.165c-0.13-0.031-0.265-0.036-0.397-0.014s-0.258 0.069-0.372 0.14c-0.113 0.071-0.211 0.163-0.287 0.271s-0.129 0.231-0.157 0.36c-0.027 0.129-0.028 0.262-0.002 0.392l0.010 0.059c0.178 1.040 0.724 1.984 1.542 2.664s1.854 1.054 2.924 1.054c1.195 0 2.341-0.466 3.186-1.297s1.322-1.958 1.324-3.134c0-0.912-0.28-1.759-0.758-2.462h2.758c1.326 0 2.598-0.519 3.536-1.442s1.464-2.176 1.464-3.481c0-1.306-0.527-2.558-1.464-3.481s-2.209-1.442-3.536-1.442z"></path>
</symbol>
<symbol id="icon-air" viewBox="0 0 32 32">
<path stroke-linejoin="round" stroke-linecap="round" stroke-miterlimit="4" stroke-width="2.4" d="M28.571 1.143h-25.143c-0.606 0-1.188 0.241-1.616 0.669s-0.669 1.010-0.669 1.616v11.429c0 0.606 0.241 1.188 0.669 1.616s1.010 0.669 1.616 0.669h25.143c0.606 0 1.188-0.241 1.616-0.669s0.67-1.010 0.67-1.616v-11.429c0-0.606-0.241-1.188-0.67-1.616s-1.010-0.669-1.616-0.669z"></path>
<path stroke-linejoin="round" stroke-linecap="round" stroke-miterlimit="4" stroke-width="2.4" d="M25.143 17.143v-4.571c0-0.606-0.241-1.188-0.67-1.616s-1.010-0.669-1.616-0.669h-13.714c-0.606 0-1.188 0.241-1.616 0.669s-0.669 1.010-0.669 1.616v4.571M5.714 28.572h0.229c0.849 0 1.663-0.337 2.263-0.937s0.937-1.414 0.937-2.263v-2.514M26.286 28.572h-0.229c-0.849 0-1.663-0.337-2.263-0.937s-0.937-1.414-0.937-2.263v-2.514M16 30.857v-8"></path>
</symbol>
<symbol id="icon-avtomatmin" viewBox="0 0 32 32">
<path stroke-linejoin="round" stroke-linecap="round" stroke-miterlimit="4" stroke-width="2.4" d="M22.667 14.667h2c0.53 0 1.039-0.211 1.414-0.586s0.586-0.884 0.586-1.414-0.211-1.039-0.586-1.414c-0.375-0.375-0.884-0.586-1.414-0.586h-2v6.667M22.667 22.667v5.333h1.333c0.707 0 1.386-0.281 1.886-0.781s0.781-1.178 0.781-1.886c0-0.707-0.281-1.385-0.781-1.886s-1.178-0.781-1.886-0.781h-1.333zM4 6.667c0 0.707 0.281 1.386 0.781 1.886s1.178 0.781 1.886 0.781c0.707 0 1.386-0.281 1.886-0.781s0.781-1.178 0.781-1.886c0-0.707-0.281-1.386-0.781-1.886s-1.178-0.781-1.886-0.781c-0.707 0-1.386 0.281-1.886 0.781s-0.781 1.178-0.781 1.886z"></path>
<path stroke-linejoin="round" stroke-linecap="round" stroke-miterlimit="4" stroke-width="2.4" d="M6.667 9.333v4c0 0.354 0.14 0.693 0.391 0.943s0.589 0.391 0.943 0.391h4M12 14.667v9.333c0 0.354 0.14 0.693 0.391 0.943s0.589 0.391 0.943 0.391h4M12 14.667h5.333"></path>
</symbol>
<symbol id="icon-bed" viewBox="0 0 32 32" fill="none" stroke="#101828">
<path stroke-linejoin="round" stroke-linecap="round" stroke-miterlimit="4" stroke-width="2.24" d="M3 26v-7c0.003-1.060 0.426-2.076 1.175-2.825s1.765-1.172 2.825-1.175h18c1.060 0.003 2.076 0.426 2.825 1.175s1.172 1.765 1.175 2.825v7M24 15h-18v-6.5c0.002-0.662 0.266-1.297 0.734-1.766s1.103-0.732 1.766-0.734h15c0.662 0.002 1.297 0.266 1.766 0.734s0.732 1.103 0.734 1.766v6.5h-2z"></path>
<path stroke-linejoin="round" stroke-linecap="round" stroke-miterlimit="4" stroke-width="2.24" d="M3 26v-0.5c0.001-0.397 0.16-0.778 0.441-1.059s0.662-0.44 1.059-0.441h23c0.397 0.001 0.778 0.16 1.059 0.441s0.44 0.662 0.441 1.059v0.5M7 15v-1c0.002-0.53 0.213-1.038 0.587-1.413s0.883-0.586 1.413-0.587h5c0.53 0.002 1.038 0.213 1.413 0.587s0.586 0.883 0.587 1.413M16 14v1M16 14c0.001-0.53 0.213-1.038 0.587-1.413s0.883-0.586 1.413-0.587h5c0.53 0.002 1.038 0.213 1.413 0.587s0.586 0.883 0.587 1.413v1"></path>
</symbol>
<symbol id="icon-cd" viewBox="0 0 32 32">
<path stroke-linejoin="miter" stroke-linecap="butt" stroke-miterlimit="4" stroke-width="2.4" d="M16 28c6.627 0 12-5.373 12-12s-5.373-12-12-12c-6.627 0-12 5.373-12 12s5.373 12 12 12z"></path>
<path stroke-linejoin="miter" stroke-linecap="round" stroke-miterlimit="4" stroke-width="2.4" d="M8.667 16c0-4.050 3.283-7.333 7.333-7.333"></path>
<path stroke-linejoin="miter" stroke-linecap="butt" stroke-miterlimit="4" stroke-width="2.4" d="M16 19.333c1.841 0 3.333-1.492 3.333-3.333s-1.492-3.333-3.333-3.333c-1.841 0-3.333 1.492-3.333 3.333s1.492 3.333 3.333 3.333z"></path>
</symbol>
<symbol id="icon-freezer" viewBox="0 0 32 32">
<path stroke-linejoin="round" stroke-linecap="round" stroke-miterlimit="4" stroke-width="2.0800" d="M23.4 3h-14.793c-1.105 0-2 0.895-2 2v20.387c0 1.104 0.895 2 2 2h14.793c1.104 0 2-0.896 2-2v-20.387c0-1.105-0.896-2-2-2z"></path>
<path stroke-linejoin="round" stroke-linecap="round" stroke-miterlimit="4" stroke-width="2.0800" d="M6.607 13.127h18.787M10.313 10.567v-4.040M10.313 19.44v-4.040M8.427 27.387v0.7c0 0.241 0.095 0.472 0.265 0.643s0.4 0.268 0.642 0.27h1.647c0.242 0 0.475-0.096 0.646-0.268s0.268-0.404 0.268-0.646v-0.7M20.1 27.387v0.7c0 0.242 0.096 0.474 0.268 0.646s0.404 0.268 0.646 0.268h1.653c0.242 0 0.474-0.096 0.646-0.268s0.268-0.404 0.268-0.646v-0.7"></path>
</symbol>
<symbol id="icon-gas" viewBox="0 0 32 32">
<path d="M25.072 13.991c-0.368-0.453-0.816-0.846-1.232-1.239-1.072-0.907-2.288-1.556-3.311-2.508-2.384-2.206-2.912-5.848-1.392-8.644-1.52 0.348-2.848 1.133-3.983 1.995-4.143 3.143-5.775 8.689-3.823 13.449 0.064 0.151 0.128 0.302 0.128 0.499 0 0.332-0.24 0.635-0.56 0.756-0.368 0.151-0.752 0.060-1.056-0.181-0.091-0.071-0.167-0.159-0.224-0.257-1.808-2.161-2.096-5.259-0.88-7.737-2.672 2.055-4.127 5.531-3.919 8.81 0.096 0.756 0.192 1.511 0.464 2.267 0.224 0.907 0.656 1.813 1.136 2.614 1.728 2.614 4.719 4.488 7.935 4.866 3.423 0.408 7.087-0.181 9.71-2.418 2.927-2.508 3.951-6.528 2.448-9.974l-0.208-0.393c-0.336-0.695-1.232-1.904-1.232-1.904zM20.017 23.512c-0.448 0.363-1.184 0.756-1.76 0.907-1.792 0.604-3.583-0.242-4.639-1.239 1.904-0.423 3.039-1.753 3.375-3.098 0.272-1.209-0.24-2.206-0.448-3.37-0.192-1.118-0.16-2.070 0.272-3.113 0.304 0.574 0.624 1.148 1.008 1.602 1.232 1.511 3.167 2.176 3.583 4.231 0.064 0.212 0.096 0.423 0.096 0.65 0.048 1.239-0.528 2.599-1.488 3.43z"></path>
</symbol>
<symbol id="icon-hob" viewBox="0 0 32 32">
<path fill="none" stroke="#101828" style="stroke: var(--color1, #101828)" stroke-linejoin="miter" stroke-linecap="butt" stroke-miterlimit="4" stroke-width="2.4" d="M12 6.667h16c0.354 0 0.693 0.14 0.943 0.391s0.391 0.589 0.391 0.943v17.333c0 0.354-0.14 0.693-0.391 0.943s-0.589 0.391-0.943 0.391h-16M12 6.667h-8c-0.354 0-0.693 0.14-0.943 0.391s-0.39 0.589-0.39 0.943v17.333c0 0.354 0.14 0.693 0.39 0.943s0.589 0.391 0.943 0.391h8M12 6.667v20"></path>
<path fill="none" stroke="#101828" style="stroke: var(--color1, #101828)" stroke-linejoin="round" stroke-linecap="round" stroke-miterlimit="4" stroke-width="2.4" d="M7.333 11.333v2.667M24.667 10.667l-8 11.333"></path>
<path d="M8.667 18c0-0.736-0.597-1.333-1.333-1.333s-1.333 0.597-1.333 1.333c0 0.736 0.597 1.333 1.333 1.333s1.333-0.597 1.333-1.333z"></path>
<path d="M8.667 22c0-0.736-0.597-1.333-1.333-1.333s-1.333 0.597-1.333 1.333c0 0.736 0.597 1.333 1.333 1.333s1.333-0.597 1.333-1.333z"></path>
</symbol>
<symbol id="icon-kithenmin" viewBox="0 0 32 32" >
<path stroke-linejoin="round" stroke-linecap="round" stroke-miterlimit="4" stroke-width="2.4" d="M23.259 19.111v-12.445c-4.994 4.764-5.209 8.627-5.185 12.445h5.185zM23.259 19.111v6.222h-1.037v-3.111M11.852 7.704v17.63M8.741 7.704v3.111c0 0.825 0.328 1.616 0.911 2.2s1.375 0.911 2.2 0.911c0.825 0 1.616-0.328 2.2-0.911s0.911-1.375 0.911-2.2v-3.111"></path>
</symbol>
<symbol id="icon-microwave" viewBox="0 0 32 32">
<path stroke-linejoin="round" stroke-linecap="round" stroke-miterlimit="4" stroke-width="2.24" d="M29.714 5.714h-27.429c-0.303 0-0.594 0.12-0.808 0.335s-0.335 0.505-0.335 0.808v18.286c0 0.303 0.12 0.594 0.335 0.808s0.505 0.335 0.808 0.335h27.429c0.303 0 0.594-0.12 0.808-0.335s0.335-0.505 0.335-0.808v-18.286c0-0.303-0.12-0.594-0.335-0.808s-0.505-0.335-0.808-0.335z"></path>
<path stroke-linejoin="round" stroke-linecap="round" stroke-miterlimit="4" stroke-width="2.24" d="M25.143 11.428h1.143M25.143 16h1.143M19.428 10.286h-12.571c-0.303 0-0.594 0.12-0.808 0.335s-0.335 0.505-0.335 0.808v9.143c0 0.303 0.12 0.594 0.335 0.808s0.505 0.335 0.808 0.335h12.571c0.303 0 0.594-0.12 0.808-0.335s0.335-0.505 0.335-0.808v-9.143c0-0.303-0.12-0.594-0.335-0.808s-0.505-0.335-0.808-0.335z"></path>
</symbol>
<symbol id="icon-petrol" viewBox="0 0 32 32">
<path d="M26.36 9.64l0.013-0.013-4.96-4.96-1.413 1.413 2.813 2.813c-1.253 0.48-2.147 1.68-2.147 3.107 0 0.438 0.086 0.871 0.254 1.276s0.413 0.772 0.723 1.081c0.625 0.625 1.473 0.976 2.357 0.976 0.48 0 0.92-0.107 1.333-0.28v9.613c0 0.354-0.14 0.693-0.391 0.943s-0.589 0.391-0.943 0.391c-0.354 0-0.693-0.14-0.943-0.391s-0.391-0.589-0.391-0.943v-6c0-0.707-0.281-1.386-0.781-1.886s-1.178-0.781-1.886-0.781h-1.333v-9.333c0-0.707-0.281-1.386-0.781-1.886s-1.178-0.781-1.886-0.781h-8c-0.707 0-1.386 0.281-1.886 0.781s-0.781 1.178-0.781 1.886v21.333h13.333v-10h2v6.667c0 0.884 0.351 1.732 0.976 2.357s1.473 0.976 2.357 0.976c0.438 0 0.871-0.086 1.276-0.254s0.772-0.413 1.081-0.723c0.309-0.309 0.555-0.677 0.723-1.081s0.254-0.838 0.254-1.276v-12.667c0-0.92-0.373-1.76-0.973-2.36zM16 18v7.333h-8v-9.333h8v2zM16 13.333h-8v-6.667h8v6.667zM24 13.333c-0.354 0-0.693-0.14-0.943-0.39s-0.391-0.589-0.391-0.943c0-0.354 0.14-0.693 0.391-0.943s0.589-0.39 0.943-0.39c0.354 0 0.693 0.14 0.943 0.39s0.391 0.589 0.391 0.943c0 0.354-0.14 0.693-0.391 0.943s-0.589 0.39-0.943 0.39z"></path>
</symbol>
<symbol id="icon-radio" viewBox="0 0 32 32">
<path stroke-linejoin="miter" stroke-linecap="butt" stroke-miterlimit="4" stroke-width="2.0800" d="M2.667 18.667c0-5.028 0-7.543 1.563-9.104 1.561-1.563 4.076-1.563 9.104-1.563h5.333c5.028 0 7.543 0 9.104 1.563 1.563 1.561 1.563 4.076 1.563 9.104s0 7.543-1.563 9.104c-1.561 1.563-4.076 1.563-9.104 1.563h-5.333c-5.028 0-7.543 0-9.104-1.563-1.563-1.561-1.563-4.076-1.563-9.104z"></path>
<path stroke-linejoin="miter" stroke-linecap="butt" stroke-miterlimit="4" stroke-width="2.0800" d="M6.667 14.667c0-0.707 0.281-1.386 0.781-1.886s1.178-0.781 1.886-0.781h13.333c0.707 0 1.386 0.281 1.886 0.781s0.781 1.178 0.781 1.886-0.281 1.386-0.781 1.886c-0.5 0.5-1.178 0.781-1.886 0.781h-13.333c-0.707 0-1.386-0.281-1.886-0.781s-0.781-1.178-0.781-1.886zM12 22.667c0 0.53-0.211 1.039-0.586 1.414s-0.884 0.586-1.414 0.586-1.039-0.211-1.414-0.586c-0.375-0.375-0.586-0.884-0.586-1.414s0.211-1.039 0.586-1.414 0.884-0.586 1.414-0.586c0.53 0 1.039 0.211 1.414 0.586s0.586 0.884 0.586 1.414z"></path>
<path stroke-linejoin="miter" stroke-linecap="round" stroke-miterlimit="4" stroke-width="2.0800" d="M20 15.333v2M17.333 22.667h6.667M8.667 8l11.333-5.333"></path>
</symbol>
<symbol id="icon-shower" viewBox="0 0 32 32">
<path stroke-linejoin="round" stroke-linecap="round" stroke-miterlimit="4" stroke-width="2.56" d="M5.333 5.333l3.333 3.333M18 8.667c-1.242-1.217-2.914-1.895-4.653-1.886s-3.404 0.703-4.634 1.933c-1.23 1.23-1.924 2.895-1.933 4.634s0.669 3.411 1.886 4.653M20 6.667l-13.333 13.333M18.667 22.667v0.013M13.333 21.333v0.013M17.333 17.333v0.013M21.333 13.333v0.013M14.667 26.667v0.013M22.667 18.667v0.013M26.667 14.667v0.013"></path>
</symbol>
<symbol id="icon-toilet" viewBox="0 0 32 32">
<path d="M24 4c1.939 0 3.269 1.647 4.040 3.313 0.761 1.653 1.224 3.811 1.287 6.145l0.007 0.541v12.667c0 0.18-0.036 0.357-0.106 0.523s-0.173 0.315-0.303 0.439c-0.13 0.125-0.283 0.222-0.451 0.285s-0.347 0.093-0.527 0.086l-0.165-0.019-3.781-0.629-3.781 0.629c-0.16 0.027-0.324 0.024-0.483-0.008l-0.157-0.041-3.579-1.193-3.579 1.193c-0.188 0.063-0.387 0.083-0.583 0.059s-0.385-0.092-0.552-0.197-0.309-0.248-0.414-0.415c-0.105-0.167-0.172-0.356-0.196-0.553l-0.009-0.159v-3.903c-0.708 0.733-1.595 1.236-2.667 1.236-1.939 0-3.269-1.647-4.040-3.313-0.819-1.78-1.293-4.145-1.293-6.687s0.473-4.907 1.293-6.687c0.735-1.592 1.981-3.164 3.78-3.303l0.26-0.011h16zM24 6.667h-12.291c0.12 0.213 0.229 0.429 0.329 0.647 0.821 1.78 1.295 4.145 1.295 6.687v10.817l2.245-0.749c0.274-0.091 0.569-0.091 0.843 0l3.687 1.229 3.673-0.613c0.144-0.024 0.293-0.024 0.437 0l2.448 0.409v-11.093c0-2.245-0.423-4.213-1.049-5.569-0.677-1.471-1.347-1.764-1.617-1.764zM8 6.667c-0.271 0-0.94 0.293-1.617 1.764-0.627 1.356-1.049 3.324-1.049 5.569s0.423 4.213 1.049 5.569c0.677 1.471 1.347 1.764 1.617 1.764s0.94-0.293 1.617-1.764c0.627-1.356 1.049-3.324 1.049-5.569s-0.423-4.213-1.049-5.569c-0.677-1.471-1.347-1.764-1.617-1.764zM8 11.333c0.736 0 1.333 1.193 1.333 2.667s-0.597 2.667-1.333 2.667c-0.736 0-1.333-1.193-1.333-2.667s0.597-2.667 1.333-2.667z"></path>
</symbol>
<symbol id="icon-Users" viewBox="0 0 32 32">
<path d="M9.067 24.133h-4.4c-0.267 0-0.4-0.133-0.533-0.267s-0.267-0.4-0.133-0.667c0.8-2.267 2.8-3.6 5.067-3.6 2.8 0 5.067-2.4 5.067-5.2s-2.267-5.467-5.067-5.467-5.067 2.4-5.067 5.333c0 1.333 0.533 2.667 1.333 3.6-1.733 0.933-3.067 2.4-3.867 4.4-0.267 0.933-0.133 2.133 0.533 3.067s1.6 1.467 2.667 1.467h4.4c0.8 0 1.333-0.533 1.333-1.333s-0.533-1.333-1.333-1.333zM6.667 14.267c0-1.467 1.067-2.533 2.4-2.533s2.4 1.2 2.4 2.533c0 1.467-1.067 2.533-2.4 2.533s-2.4-1.2-2.4-2.533z"></path>
<path d="M30.533 21.467c-0.933-2.533-2.8-4.4-4.933-5.467 1.2-1.067 1.867-2.667 1.867-4.533 0-3.467-2.667-6.267-5.867-6.267s-5.867 2.8-5.867 6.267c0 1.733 0.667 3.333 1.867 4.533-2.133 1.067-4 2.933-4.933 5.467-0.667 1.2-0.4 2.533 0.267 3.6s1.867 1.6 3.067 1.6h11.067c1.2 0 2.4-0.667 3.067-1.6 0.8-1.067 0.933-2.4 0.4-3.6zM18.267 11.6c0-2 1.467-3.6 3.2-3.6s3.2 1.6 3.2 3.6-1.467 3.6-3.2 3.6c-1.733 0-3.2-1.733-3.2-3.6zM27.867 23.6c-0.133 0.133-0.4 0.533-0.8 0.533h-11.067c-0.533 0-0.8-0.4-0.8-0.533-0.133-0.133-0.4-0.667-0.133-1.2 1.067-2.8 3.733-4.667 6.533-4.667s5.467 1.867 6.533 4.667c0.133 0.533-0.133 1.067-0.267 1.2z"></path>
</symbol>
<symbol id="icon-water" viewBox="0 0 32 32">
<path stroke-linejoin="miter" stroke-linecap="butt" stroke-miterlimit="10" stroke-width="2.4" d="M25 20c0 5.523-3.477 9-9 9s-9-3.477-9-9c0-5.927 6.452-13.928 8.431-16.242 0.070-0.082 0.158-0.148 0.256-0.194s0.205-0.069 0.314-0.069c0.108 0 0.215 0.023 0.314 0.069s0.186 0.111 0.256 0.194c1.978 2.314 8.43 10.316 8.43 16.242z"></path>
<path stroke-linejoin="round" stroke-linecap="round" stroke-miterlimit="4" stroke-width="2.4" d="M21.5 20.5c0 1.193-0.474 2.338-1.318 3.182s-1.988 1.318-3.182 1.318"></path>
</symbol>
<symbol id="icon-Kitchen" viewBox="0 0 31 32" >
<path stroke-linejoin="round" stroke-linecap="round" stroke-miterlimit="4" stroke-width="0.9443" d="M20.372 10.754v-8.393c-3.369 3.213-3.513 5.819-3.497 8.393h3.497zM20.372 10.754v4.197h-0.699v-2.098M12.678 3.060v11.891M10.579 3.060v2.098c0 0.557 0.221 1.090 0.615 1.484s0.927 0.615 1.484 0.615c0.557 0 1.090-0.221 1.484-0.615s0.615-0.927 0.615-1.484v-2.098"></path>
<path d="M0.757 29.639v-6.104h0.921v2.915h0.075l2.56-2.915h1.159l-2.462 2.748 2.471 3.356h-1.109l-1.973-2.727-0.721 0.829v1.899h-0.921zM6.546 29.639v-4.578h0.891v4.578h-0.891zM6.996 24.355c-0.155 0-0.288-0.052-0.399-0.155-0.109-0.105-0.164-0.23-0.164-0.376 0-0.147 0.055-0.272 0.164-0.376 0.111-0.105 0.244-0.158 0.399-0.158s0.287 0.053 0.396 0.158c0.111 0.103 0.167 0.229 0.167 0.376 0 0.145-0.056 0.27-0.167 0.376-0.109 0.103-0.241 0.155-0.396 0.155zM10.773 25.061v0.715h-2.501v-0.715h2.501zM8.943 23.964h0.891v4.331c0 0.173 0.026 0.303 0.078 0.39 0.052 0.085 0.118 0.144 0.2 0.176 0.083 0.030 0.174 0.045 0.271 0.045 0.072 0 0.134-0.005 0.188-0.015s0.095-0.018 0.125-0.024l0.161 0.736c-0.052 0.020-0.125 0.040-0.221 0.060-0.095 0.022-0.215 0.034-0.358 0.036-0.234 0.004-0.453-0.038-0.656-0.125s-0.367-0.223-0.492-0.405c-0.125-0.183-0.188-0.412-0.188-0.689v-4.516zM13.638 29.732c-0.443 0-0.825-0.1-1.145-0.301-0.318-0.203-0.562-0.482-0.733-0.838s-0.256-0.763-0.256-1.222c0-0.465 0.087-0.875 0.262-1.231 0.175-0.358 0.421-0.637 0.739-0.837s0.693-0.301 1.124-0.301c0.348 0 0.658 0.065 0.93 0.194 0.272 0.127 0.492 0.306 0.659 0.537 0.169 0.23 0.269 0.5 0.301 0.808h-0.867c-0.048-0.215-0.157-0.399-0.328-0.554-0.169-0.155-0.395-0.233-0.68-0.233-0.248 0-0.466 0.066-0.653 0.197-0.185 0.129-0.329 0.314-0.432 0.554-0.103 0.238-0.155 0.521-0.155 0.847 0 0.334 0.051 0.622 0.152 0.864s0.244 0.43 0.429 0.563c0.187 0.133 0.406 0.2 0.659 0.2 0.169 0 0.322-0.031 0.459-0.092 0.139-0.064 0.255-0.154 0.349-0.271 0.095-0.117 0.162-0.258 0.2-0.423h0.867c-0.032 0.296-0.128 0.56-0.289 0.793s-0.377 0.415-0.647 0.548c-0.268 0.133-0.583 0.2-0.945 0.2zM17.363 26.921v2.718h-0.891v-6.104h0.879v2.271h0.057c0.107-0.246 0.271-0.442 0.492-0.587s0.509-0.218 0.864-0.218c0.314 0 0.588 0.065 0.823 0.194 0.236 0.129 0.419 0.322 0.548 0.578 0.131 0.254 0.197 0.572 0.197 0.954v2.912h-0.891v-2.805c0-0.336-0.086-0.596-0.259-0.781-0.173-0.187-0.413-0.28-0.721-0.28-0.211 0-0.399 0.045-0.566 0.134-0.165 0.089-0.295 0.221-0.39 0.393-0.093 0.171-0.14 0.378-0.14 0.62zM23.494 29.732c-0.451 0-0.84-0.096-1.165-0.289-0.324-0.195-0.574-0.468-0.751-0.82-0.175-0.354-0.262-0.768-0.262-1.243 0-0.469 0.087-0.882 0.262-1.24 0.177-0.358 0.423-0.637 0.739-0.837 0.318-0.201 0.69-0.301 1.115-0.301 0.258 0 0.509 0.043 0.751 0.128s0.46 0.22 0.653 0.402c0.193 0.183 0.345 0.42 0.456 0.712 0.111 0.29 0.167 0.643 0.167 1.058v0.316h-3.639v-0.668h2.766c0-0.235-0.048-0.442-0.143-0.623-0.095-0.183-0.23-0.327-0.402-0.432-0.171-0.105-0.372-0.158-0.602-0.158-0.25 0-0.469 0.062-0.656 0.185-0.185 0.121-0.328 0.28-0.429 0.477-0.099 0.195-0.149 0.406-0.149 0.635v0.522c0 0.306 0.054 0.566 0.161 0.781 0.109 0.215 0.261 0.379 0.456 0.492 0.195 0.111 0.422 0.167 0.683 0.167 0.169 0 0.323-0.024 0.462-0.072 0.139-0.050 0.259-0.123 0.361-0.221s0.179-0.218 0.233-0.361l0.844 0.152c-0.068 0.248-0.189 0.466-0.364 0.653-0.173 0.185-0.39 0.329-0.653 0.432-0.26 0.101-0.557 0.152-0.891 0.152zM27.339 26.921v2.718h-0.891v-4.578h0.855v0.745h0.057c0.105-0.242 0.27-0.437 0.495-0.584 0.227-0.147 0.512-0.221 0.855-0.221 0.312 0 0.585 0.066 0.82 0.197 0.235 0.129 0.416 0.322 0.545 0.578s0.194 0.573 0.194 0.951v2.912h-0.891v-2.805c0-0.332-0.086-0.591-0.259-0.778-0.173-0.189-0.41-0.283-0.712-0.283-0.207 0-0.39 0.045-0.551 0.134-0.159 0.089-0.285 0.221-0.379 0.393-0.091 0.171-0.137 0.378-0.137 0.62z"></path>
</symbol>
<symbol id="icon-AC" viewBox="0 0 17 32">
<path d="M8.159 2.78c-0.709 0-1.396 0.252-1.944 0.713s-0.924 1.102-1.063 1.815l-0.055 0.283c-0.015 0.063-0.017 0.129-0.006 0.193s0.034 0.125 0.068 0.18c0.034 0.055 0.079 0.102 0.131 0.138s0.111 0.062 0.173 0.075c0.062 0.013 0.126 0.013 0.188-0.001s0.121-0.039 0.173-0.076c0.052-0.037 0.096-0.084 0.13-0.139s0.057-0.116 0.067-0.18l0.056-0.282c0.105-0.528 0.397-0.998 0.82-1.318s0.947-0.468 1.47-0.415c0.523 0.053 1.008 0.304 1.362 0.703s0.55 0.919 0.551 1.458c0 0.578-0.224 1.132-0.622 1.541s-0.939 0.639-1.502 0.639h-6.846c-0.125 0-0.245 0.051-0.334 0.142s-0.138 0.214-0.138 0.342c0 0.128 0.050 0.252 0.138 0.342s0.209 0.142 0.334 0.142h6.846c0.801-0.020 1.562-0.36 2.122-0.948s0.873-1.377 0.873-2.198c0-0.822-0.313-1.611-0.872-2.199s-1.32-0.929-2.121-0.95zM13.587 7.138c-0.626 0-1.227 0.255-1.669 0.709s-0.691 1.070-0.691 1.712c0 0.128 0.050 0.252 0.138 0.342s0.209 0.142 0.334 0.142c0.125 0 0.245-0.051 0.334-0.142s0.138-0.214 0.138-0.342c0-0.287 0.083-0.568 0.239-0.807s0.377-0.425 0.636-0.535c0.259-0.11 0.544-0.139 0.818-0.083s0.527 0.194 0.725 0.398c0.198 0.203 0.333 0.462 0.388 0.744s0.027 0.574-0.081 0.839c-0.107 0.265-0.289 0.492-0.522 0.652s-0.507 0.245-0.787 0.245h-12.275c-0.125 0-0.245 0.051-0.334 0.142s-0.138 0.214-0.138 0.342c0 0.128 0.050 0.252 0.138 0.342s0.209 0.142 0.334 0.142h9.207c0.313 0.001 0.613 0.129 0.834 0.356s0.345 0.536 0.344 0.857c-0.001 0.321-0.126 0.629-0.347 0.855s-0.522 0.354-0.835 0.353c-0.282 0-0.555-0.102-0.77-0.288s-0.36-0.445-0.407-0.73l-0.005-0.029c-0.008-0.064-0.029-0.126-0.062-0.182s-0.075-0.104-0.126-0.143c-0.051-0.039-0.109-0.066-0.17-0.081s-0.125-0.017-0.188-0.007c-0.062 0.011-0.122 0.034-0.175 0.069s-0.099 0.080-0.135 0.133c-0.036 0.053-0.061 0.113-0.074 0.177s-0.013 0.129-0.001 0.193l0.005 0.029c0.084 0.511 0.342 0.975 0.728 1.31s0.875 0.518 1.381 0.518c0.564 0 1.105-0.229 1.504-0.638s0.624-0.963 0.625-1.541c0-0.448-0.132-0.865-0.358-1.211h1.302c0.626 0 1.227-0.255 1.669-0.709s0.691-1.070 0.691-1.712-0.249-1.258-0.691-1.712c-0.443-0.454-1.043-0.709-1.669-0.709z"></path>
<path d="M3.699 29.639h-0.978l2.197-6.104h1.064l2.197 6.104h-0.978l-1.726-4.995h-0.048l-1.729 4.995zM3.863 27.249h3.171v0.775h-3.171v-0.775zM13.843 25.52h-0.93c-0.036-0.199-0.102-0.374-0.2-0.525s-0.217-0.279-0.358-0.384c-0.141-0.105-0.299-0.185-0.474-0.238-0.173-0.054-0.357-0.080-0.551-0.080-0.352 0-0.667 0.088-0.945 0.265-0.276 0.177-0.495 0.436-0.656 0.778-0.159 0.342-0.238 0.759-0.238 1.252 0 0.497 0.080 0.916 0.238 1.258 0.161 0.342 0.381 0.6 0.659 0.775s0.591 0.262 0.939 0.262c0.193 0 0.376-0.026 0.548-0.077 0.175-0.054 0.333-0.132 0.474-0.235s0.26-0.23 0.358-0.379c0.099-0.151 0.168-0.324 0.206-0.519l0.93 0.003c-0.050 0.3-0.146 0.576-0.289 0.829-0.141 0.25-0.323 0.467-0.545 0.65-0.221 0.181-0.473 0.321-0.757 0.42s-0.594 0.149-0.93 0.149c-0.529 0-0.999-0.125-1.413-0.376-0.413-0.252-0.739-0.613-0.978-1.082-0.236-0.469-0.355-1.028-0.355-1.678 0-0.652 0.119-1.211 0.358-1.678 0.238-0.469 0.564-0.829 0.978-1.079 0.413-0.252 0.883-0.379 1.41-0.379 0.324 0 0.626 0.047 0.906 0.14 0.282 0.091 0.536 0.227 0.76 0.405 0.225 0.177 0.41 0.393 0.557 0.65 0.147 0.254 0.246 0.545 0.298 0.873z"></path>
</symbol>
<symbol id="icon-map-pin" viewBox="0 0 29 32" fill="none" stroke="#9CA3AF">
<path stroke-linejoin="round" stroke-linecap="round" stroke-miterlimit="4" stroke-width="2.4" d="M26.4 13.333c0 9.333-12 17.333-12 17.333s-12-8-12-17.333c0-3.183 1.264-6.235 3.515-8.485s5.303-3.515 8.485-3.515c3.183 0 6.235 1.264 8.485 3.515s3.515 5.303 3.515 8.485z"></path>
<path stroke-linejoin="round" stroke-linecap="round" stroke-miterlimit="4" stroke-width="2.4" d="M14.4 17.333c2.209 0 4-1.791 4-4s-1.791-4-4-4c-2.209 0-4 1.791-4 4s1.791 4 4 4z"></path>
</symbol>
<symbol id="icon-heart" viewBox="0 0 32 32" fill="none" stroke="#101828">
<path stroke-linejoin="round" stroke-linecap="round" stroke-miterlimit="4" stroke-width="3.0667" d="M27.593 6.158c-0.67-0.67-1.465-1.202-2.341-1.564s-1.814-0.549-2.761-0.549-1.886 0.187-2.761 0.549c-0.875 0.363-1.671 0.894-2.341 1.564l-1.39 1.39-1.39-1.39c-1.353-1.353-3.188-2.113-5.102-2.113s-3.749 0.76-5.102 2.113c-1.353 1.353-2.113 3.188-2.113 5.102s0.76 3.749 2.113 5.102l11.593 11.593 11.593-11.593c0.67-0.67 1.202-1.465 1.564-2.341s0.549-1.814 0.549-2.761-0.187-1.886-0.549-2.761c-0.363-0.875-0.894-1.671-1.564-2.341z"></path>
</symbol>
<symbol id="icon-camper" viewBox="0 0 32 32">
<path d="M26.711 18.584h-0.344v-6.523c0-0.533-0.432-0.965-0.965-0.965h-0.698c-0.066-0.461-0.463-0.816-0.942-0.816h-7.811c-0.113 0-0.205 0.092-0.205 0.205v0c0 0.219 0.049 0.426 0.137 0.611h-5.556c-0.113 0-0.205 0.092-0.205 0.205v0c0 0.788 0.639 1.427 1.427 1.427h2.664v5.856h-0.519v-5.318h-2.745c-0.502 0-0.969 0.258-1.236 0.684l-0.795 1.267c-0.2 0.319-0.516 0.549-0.882 0.64l-1.6 0.4c-0.55 0.138-0.971 0.581-1.079 1.139l-0.235 1.214c-0.087 0.027-0.165 0.076-0.228 0.139-0.101 0.101-0.164 0.241-0.164 0.396 0 0.309 0.251 0.56 0.56 0.56h1.728c0 1.113 0.903 2.016 2.016 2.016s2.016-0.903 2.016-2.016h10.655c0 1.113 0.902 2.016 2.016 2.016s2.016-0.903 2.016-2.016h0.974c0.155 0 0.295-0.063 0.396-0.164s0.164-0.241 0.164-0.396c0-0.309-0.251-0.56-0.56-0.56zM6.325 18.015l-0.437 0.241c-0.146 0.080-0.317-0.053-0.275-0.214l0.156-0.596c0.022-0.083 0.097-0.142 0.183-0.142h0.216c0.092 0 0.17 0.065 0.187 0.156l0.065 0.355c0.015 0.080-0.024 0.161-0.095 0.2zM9.033 20.92c-0.67 0-1.216-0.546-1.216-1.216 0-0.192 0.044-0.373 0.124-0.534 0.129-0.262 0.349-0.471 0.619-0.586 0.146-0.062 0.306-0.096 0.474-0.096s0.328 0.034 0.474 0.096c0.27 0.115 0.49 0.324 0.619 0.586 0.079 0.161 0.124 0.342 0.124 0.534 0 0.67-0.546 1.216-1.216 1.216zM12.893 16.343h-2.927c-0.356 0-0.567-0.392-0.376-0.693 0.002-0.003 0.004-0.005 0.005-0.008l0.795-1.267c0.121-0.192 0.332-0.309 0.558-0.309h1.945v2.277zM23.6 13.698c0-0.238 0.193-0.432 0.432-0.432h0.37c0.239 0 0.432 0.194 0.432 0.432v0.929c0 0.239-0.193 0.432-0.432 0.432h-0.37c-0.239 0-0.432-0.193-0.432-0.432v-0.929zM18.625 18.409c0 0.062-0.012 0.121-0.033 0.175h-2.815c-0.021-0.054-0.033-0.113-0.033-0.175v-4.686c0-0.252 0.193-0.457 0.432-0.457h2.016c0.239 0 0.432 0.204 0.432 0.457v4.686zM20.273 15.060c-0.239 0-0.432-0.193-0.432-0.432v-0.929c0-0.238 0.193-0.432 0.432-0.432h2.084c0.238 0 0.432 0.194 0.432 0.432v0.929c0 0.239-0.194 0.432-0.432 0.432h-2.084zM23.721 20.92c-0.671 0-1.216-0.546-1.216-1.216 0-0.202 0.049-0.392 0.137-0.56 0.13-0.25 0.345-0.449 0.606-0.56 0.146-0.062 0.306-0.096 0.474-0.096s0.328 0.034 0.474 0.096c0.261 0.111 0.476 0.31 0.606 0.56 0.087 0.168 0.137 0.358 0.137 0.56 0 0.67-0.546 1.216-1.216 1.216z"></path>
<path d="M9.413 19.451c-0.082-0.122-0.221-0.203-0.379-0.203s-0.297 0.080-0.379 0.203c-0.027 0.040-0.048 0.085-0.061 0.133-0.011 0.038-0.016 0.079-0.016 0.121 0 0.252 0.204 0.456 0.456 0.456s0.456-0.204 0.456-0.456c0-0.042-0.006-0.082-0.016-0.121-0.013-0.048-0.034-0.092-0.061-0.133z"></path>
<path d="M24.1 19.451c-0.082-0.122-0.221-0.203-0.379-0.203s-0.297 0.080-0.379 0.203c-0.027 0.040-0.048 0.085-0.061 0.133-0.011 0.038-0.016 0.079-0.016 0.121 0 0.252 0.204 0.456 0.456 0.456s0.456-0.204 0.456-0.456c0-0.042-0.006-0.082-0.016-0.121-0.013-0.048-0.034-0.092-0.061-0.133z"></path>
<path d="M18.106 15.576h-0.174c-0.102 0-0.185 0.088-0.185 0.196v0.59c0 0.108 0.083 0.196 0.185 0.196h0.174c0.102 0 0.185-0.088 0.185-0.196v-0.59c0-0.108-0.083-0.196-0.185-0.196z"></path>
</symbol>
<symbol id="icon-close" viewBox="0 0 32 32" fill="none" stroke="#101828">
<path stroke-linejoin="round" stroke-linecap="round" stroke-miterlimit="4" stroke-width="3" d="M24 8l-16 16"></path>
<path stroke-linejoin="round" stroke-linecap="round" stroke-miterlimit="4" stroke-width="3" d="M8 8l16 16"></path>
</symbol>
</defs>
</svg>